<?xml version="1.0" encoding="utf-8"?>
<!-- Generator: Adobe Illustrator 14.0.0, SVG Export Plug-In . SVG Version: 6.00 Build 43363)  -->
<!DOCTYPE svg PUBLIC "-//W3C//DTD SVG 1.1//EN" "http://www.w3.org/Graphics/SVG/1.1/DTD/svg11.dtd">
<svg version="1.1" xmlns="http://www.w3.org/2000/svg" xmlns:xlink="http://www.w3.org/1999/xlink" x="0px" y="0px" width="50px"
	 height="50px" viewBox="0 0 50 50" enable-background="new 0 0 50 50" xml:space="preserve">
<g id="burst">
	<path fill="none" stroke="#FF0000" stroke-width="0.001" stroke-miterlimit="10" d="M26.549,26.854c-1.664,0-3.01-1.532-3.01-3.428
		"/>
	
		<line fill="none" stroke="#FF0000" stroke-width="0.001" stroke-miterlimit="10" x1="26.559" y1="22.592" x2="26.559" y2="16.391"/>
	
		<line fill="none" stroke="#FF0000" stroke-width="0.001" stroke-miterlimit="10" x1="26.559" y1="24.407" x2="26.559" y2="31.543"/>
	<line fill="none" stroke="#FF0000" stroke-width="0.001" stroke-miterlimit="10" x1="27.717" y1="23.411" x2="32.77" y2="23.411"/>
	
		<line fill="none" stroke="#FF0000" stroke-width="0.001" stroke-miterlimit="10" x1="25.206" y1="23.411" x2="22.064" y2="23.411"/>
	<line fill="none" stroke="#0000FF" stroke-width="0.001" stroke-miterlimit="10" x1="26.559" y1="20.476" x2="26.559" y2="18.81"/>
	
		<line fill="none" stroke="#0000FF" stroke-width="0.001" stroke-miterlimit="10" x1="26.559" y1="18.175" x2="26.559" y2="17.025"/>
	<line fill="none" stroke="#0000FF" stroke-width="0.001" stroke-miterlimit="10" x1="26.559" y1="16.39" x2="26.559" y2="15.398"/>
	
		<line fill="none" stroke="#0000FF" stroke-width="0.001" stroke-miterlimit="10" x1="26.559" y1="14.684" x2="26.559" y2="13.374"/>
	
		<line fill="none" stroke="#0000FF" stroke-width="0.001" stroke-miterlimit="10" x1="26.559" y1="12.819" x2="26.559" y2="11.868"/>
	<line fill="none" stroke="#0000FF" stroke-width="0.001" stroke-miterlimit="10" x1="26.559" y1="11.233" x2="26.559" y2="9.725"/>
	<line fill="none" stroke="#0000FF" stroke-width="0.001" stroke-miterlimit="10" x1="26.559" y1="9.052" x2="26.559" y2="7.544"/>
	<line fill="none" stroke="#0000FF" stroke-width="0.001" stroke-miterlimit="10" x1="26.559" y1="6.949" x2="26.559" y2="5.719"/>
	<line fill="none" stroke="#0000FF" stroke-width="0.001" stroke-miterlimit="10" x1="26.559" y1="5.006" x2="26.559" y2="4.054"/>
	
		<line fill="none" stroke="#0000FF" stroke-width="0.001" stroke-miterlimit="10" x1="26.559" y1="31.543" x2="26.559" y2="32.773"/>
	
		<line fill="none" stroke="#0000FF" stroke-width="0.001" stroke-miterlimit="10" x1="26.559" y1="33.328" x2="26.559" y2="34.598"/>
	<line fill="none" stroke="#0000FF" stroke-width="0.001" stroke-miterlimit="10" x1="26.559" y1="35.15" x2="26.559" y2="36.383"/>
	
		<line fill="none" stroke="#0000FF" stroke-width="0.001" stroke-miterlimit="10" x1="26.559" y1="36.936" x2="26.559" y2="37.928"/>
	
		<line fill="none" stroke="#0000FF" stroke-width="0.001" stroke-miterlimit="10" x1="26.559" y1="38.721" x2="26.559" y2="39.396"/>
	<line fill="none" stroke="#0000FF" stroke-width="0.001" stroke-miterlimit="10" x1="26.559" y1="39.91" x2="26.559" y2="40.824"/>
	<line fill="none" stroke="#0000FF" stroke-width="0.001" stroke-miterlimit="10" x1="26.559" y1="41.42" x2="26.559" y2="42.016"/>
	
		<line fill="none" stroke="#0000FF" stroke-width="0.001" stroke-miterlimit="10" x1="28.617" y1="23.411" x2="30.082" y2="23.411"/>
	
		<line fill="none" stroke="#0000FF" stroke-width="0.001" stroke-miterlimit="10" x1="32.279" y1="23.411" x2="33.779" y2="23.411"/>
	<line fill="none" stroke="#0000FF" stroke-width="0.001" stroke-miterlimit="10" x1="34.334" y1="23.411" x2="35.73" y2="23.411"/>
	
		<line fill="none" stroke="#0000FF" stroke-width="0.001" stroke-miterlimit="10" x1="36.291" y1="23.411" x2="37.822" y2="23.411"/>
	
		<line fill="none" stroke="#0000FF" stroke-width="0.001" stroke-miterlimit="10" x1="38.277" y1="23.411" x2="39.355" y2="23.411"/>
	
		<line fill="none" stroke="#0000FF" stroke-width="0.001" stroke-miterlimit="10" x1="39.879" y1="23.411" x2="40.543" y2="23.411"/>
	
		<line fill="none" stroke="#0000FF" stroke-width="0.001" stroke-miterlimit="10" x1="24.448" y1="23.411" x2="22.539" y2="23.411"/>
	
		<line fill="none" stroke="#0000FF" stroke-width="0.001" stroke-miterlimit="10" x1="22.064" y1="23.411" x2="21.228" y2="23.411"/>
	<line fill="none" stroke="#0000FF" stroke-width="0.001" stroke-miterlimit="10" x1="20.6" y1="23.411" x2="19.9" y2="23.411"/>
	
		<line fill="none" stroke="#0000FF" stroke-width="0.001" stroke-miterlimit="10" x1="19.414" y1="23.411" x2="18.855" y2="23.411"/>
	
		<line fill="none" stroke="#0000FF" stroke-width="0.001" stroke-miterlimit="10" x1="18.227" y1="23.411" x2="17.566" y2="23.411"/>
	
		<line fill="none" stroke="#0000FF" stroke-width="0.001" stroke-miterlimit="10" x1="16.939" y1="23.411" x2="16.135" y2="23.411"/>
	
		<line fill="none" stroke="#0000FF" stroke-width="0.001" stroke-miterlimit="10" x1="15.507" y1="23.411" x2="14.461" y2="23.411"/>
	
		<line fill="none" stroke="#0000FF" stroke-width="0.001" stroke-miterlimit="10" x1="13.834" y1="23.411" x2="13.138" y2="23.411"/>
	
		<line fill="none" stroke="#0000FF" stroke-width="0.001" stroke-miterlimit="10" x1="12.546" y1="23.411" x2="11.918" y2="23.411"/>
	
		<line fill="none" stroke="#0000FF" stroke-width="0.001" stroke-miterlimit="10" x1="11.464" y1="23.411" x2="10.939" y2="23.411"/>
	
		<line fill="none" stroke="#0000FF" stroke-width="0.001" stroke-miterlimit="10" x1="10.522" y1="23.411" x2="10.173" y2="23.411"/>
	
		<line fill="none" stroke="#0000FF" stroke-width="0.001" stroke-miterlimit="10" x1="27.164" y1="22.726" x2="29.334" y2="20.258"/>
	
		<line fill="none" stroke="#0000FF" stroke-width="0.001" stroke-miterlimit="10" x1="29.873" y1="19.643" x2="31.982" y2="17.242"/>
	
		<line fill="none" stroke="#0000FF" stroke-width="0.001" stroke-miterlimit="10" x1="32.279" y1="16.668" x2="33.779" y2="14.962"/>
	
		<line fill="none" stroke="#0000FF" stroke-width="0.001" stroke-miterlimit="10" x1="34.125" y1="14.486" x2="35.139" y2="13.335"/>
	<line fill="none" stroke="#0000FF" stroke-width="0.001" stroke-miterlimit="10" x1="35.73" y1="12.819" x2="37.055" y2="11.312"/>
	<line fill="none" stroke="#0000FF" stroke-width="0.001" stroke-miterlimit="10" x1="37.473" y1="10.837" x2="38.93" y2="9.18"/>
	<line fill="none" stroke="#0000FF" stroke-width="0.001" stroke-miterlimit="10" x1="39.355" y1="8.536" x2="39.811" y2="8.02"/>
	
		<line fill="none" stroke="#0000FF" stroke-width="0.001" stroke-miterlimit="10" x1="27.164" y1="24.096" x2="28.896" y2="26.068"/>
	
		<line fill="none" stroke="#0000FF" stroke-width="0.001" stroke-miterlimit="10" x1="29.334" y1="26.505" x2="31.223" y2="28.656"/>
	<line fill="none" stroke="#0000FF" stroke-width="0.001" stroke-miterlimit="10" x1="31.479" y1="29.004" x2="32.4" y2="30.055"/>
	<line fill="none" stroke="#0000FF" stroke-width="0.001" stroke-miterlimit="10" x1="32.871" y1="30.592" x2="34.125" y2="32.02"/>
	<line fill="none" stroke="#0000FF" stroke-width="0.001" stroke-miterlimit="10" x1="34.334" y1="32.455" x2="35.537" y2="33.82"/>
	<line fill="none" stroke="#0000FF" stroke-width="0.001" stroke-miterlimit="10" x1="35.939" y1="34.24" x2="36.896" y2="35.332"/>
	<line fill="none" stroke="#0000FF" stroke-width="0.001" stroke-miterlimit="10" x1="26.559" y1="3.538" x2="26.559" y2="2.268"/>
	<line fill="none" stroke="#0000FF" stroke-width="0.001" stroke-miterlimit="10" x1="26.559" y1="1.594" x2="26.559" y2="1.158"/>
	<line fill="none" stroke="#0000FF" stroke-width="0.001" stroke-miterlimit="10" x1="26.559" y1="0.682" x2="26.559" y2="0.484"/>
	
		<line fill="none" stroke="#0000FF" stroke-width="0.001" stroke-miterlimit="10" x1="25.958" y1="22.726" x2="22.126" y2="18.369"/>
	
		<line fill="none" stroke="#0000FF" stroke-width="0.001" stroke-miterlimit="10" x1="21.646" y1="18.016" x2="20.685" y2="16.925"/>
	<line fill="none" stroke="#0000FF" stroke-width="0.001" stroke-miterlimit="10" x1="20.424" y1="16.39" x2="19.946" y2="15.843"/>
	<line fill="none" stroke="#0000FF" stroke-width="0.001" stroke-miterlimit="10" x1="18.367" y1="13.91" x2="17.488" y2="12.909"/>
	
		<line fill="none" stroke="#0000FF" stroke-width="0.001" stroke-miterlimit="10" x1="17.112" y1="12.582" x2="16.599" y2="11.997"/>
	<line fill="none" stroke="#0000FF" stroke-width="0.001" stroke-miterlimit="10" x1="16.135" y1="11.63" x2="15.475" y2="10.876"/>
	<line fill="none" stroke="#0000FF" stroke-width="0.001" stroke-miterlimit="10" x1="15.161" y1="10.479" x2="14.481" y2="9.708"/>
	<line fill="none" stroke="#0000FF" stroke-width="0.001" stroke-miterlimit="10" x1="14.148" y1="9.488" x2="13.623" y2="8.892"/>
	<line fill="none" stroke="#0000FF" stroke-width="0.001" stroke-miterlimit="10" x1="13.347" y1="8.536" x2="12.856" y2="7.979"/>
	<line fill="none" stroke="#0000FF" stroke-width="0.001" stroke-miterlimit="10" x1="12.546" y1="7.822" x2="12.003" y2="7.206"/>
	<line fill="none" stroke="#0000FF" stroke-width="0.001" stroke-miterlimit="10" x1="11.673" y1="6.949" x2="11.281" y2="6.504"/>
	
		<line fill="none" stroke="#0000FF" stroke-width="0.001" stroke-miterlimit="10" x1="25.958" y1="24.096" x2="24.163" y2="26.137"/>
	
		<line fill="none" stroke="#0000FF" stroke-width="0.001" stroke-miterlimit="10" x1="24.042" y1="26.307" x2="22.895" y2="27.615"/>
	
		<line fill="none" stroke="#0000FF" stroke-width="0.001" stroke-miterlimit="10" x1="22.692" y1="28.012" x2="21.731" y2="29.104"/>
	<line fill="none" stroke="#0000FF" stroke-width="0.001" stroke-miterlimit="10" x1="21.437" y1="29.361" x2="20.59" y2="30.322"/>
	
		<line fill="none" stroke="#0000FF" stroke-width="0.001" stroke-miterlimit="10" x1="20.424" y1="30.592" x2="19.501" y2="31.643"/>
	<line fill="none" stroke="#0000FF" stroke-width="0.001" stroke-miterlimit="10" x1="19.204" y1="32.02" x2="18.593" y2="32.711"/>
	
		<line fill="none" stroke="#0000FF" stroke-width="0.001" stroke-miterlimit="10" x1="18.367" y1="33.139" x2="17.603" y2="34.006"/>
	<line fill="none" stroke="#0000FF" stroke-width="0.001" stroke-miterlimit="10" x1="17.285" y1="34.24" x2="16.74" y2="34.861"/>
	<line fill="none" stroke="#0000FF" stroke-width="0.001" stroke-miterlimit="10" x1="16.38" y1="35.15" x2="15.697" y2="35.928"/>
	<line fill="none" stroke="#B9B5EE" stroke-width="0.001" stroke-miterlimit="10" x1="26.281" y1="22.499" x2="8.571" y2="2.349"/>
	<line fill="none" stroke="#B9B5EE" stroke-width="0.001" stroke-miterlimit="10" x1="26.875" y1="24.284" x2="41.17" y2="40.547"/>
	
		<line fill="none" stroke="#B9B5EE" stroke-width="0.001" stroke-miterlimit="10" x1="27.164" y1="22.975" x2="47.934" y2="22.975"/>
	<line fill="none" stroke="#B9B5EE" stroke-width="0.001" stroke-miterlimit="10" x1="25.793" y1="23.847" x2="3.969" y2="23.847"/>
	
		<line fill="none" stroke="#B9B5EE" stroke-width="0.001" stroke-miterlimit="10" x1="26.281" y1="24.284" x2="26.281" y2="50.582"/>
	<path fill="none" stroke="#B9B5EE" stroke-width="0.001" stroke-miterlimit="10" d="M14.461,28.844
		c0-9.384,5.786-16.977,12.938-16.977"/>
	<path fill="none" stroke="#B9B5EE" stroke-width="0.001" stroke-miterlimit="10" d="M20.931,25.553c0-4.079,3.01-7.378,6.733-7.378
		"/>
	<path fill="none" stroke="#B9B5EE" stroke-width="0.001" stroke-miterlimit="10" d="M26.553,27.564
		c-2.021,0-3.661-1.864-3.661-4.164"/>
	<line fill="none" stroke="#B96BA0" stroke-width="0.001" stroke-miterlimit="10" x1="25.793" y1="25.95" x2="16.38" y2="47.148"/>
	<line fill="none" stroke="#B96BA0" stroke-width="0.001" stroke-miterlimit="10" x1="27.398" y1="26.068" x2="33.59" y2="44.949"/>
	<line fill="none" stroke="#B96BA0" stroke-width="0.001" stroke-miterlimit="10" x1="28.896" y1="24.284" x2="43.33" y2="28.559"/>
	
		<line fill="none" stroke="#B96BA0" stroke-width="0.001" stroke-miterlimit="10" x1="28.664" y1="22.221" x2="33.779" y2="18.651"/>
	<line fill="none" stroke="#B96BA0" stroke-width="0.001" stroke-miterlimit="10" x1="27.664" y1="20.257" x2="31.861" y2="7.208"/>
	
		<line fill="none" stroke="#B96BA0" stroke-width="0.001" stroke-miterlimit="10" x1="25.793" y1="20.257" x2="22.212" y2="12.289"/>
	
		<line fill="none" stroke="#B96BA0" stroke-width="0.001" stroke-miterlimit="10" x1="24.163" y1="22.499" x2="-5.131" y2="12.583"/>
	<line fill="none" stroke="#B96BA0" stroke-width="0.001" stroke-miterlimit="10" x1="25.375" y1="23.847" x2="4.42" y2="38.166"/>
</g>
<g id="node">
	<path fill="#2E3192" stroke="#000000" stroke-width="0.001" stroke-miterlimit="10" d="M27.756,22.028
		c0.997,1.469,2.612,1.259,4.157,1.279c1.394,0.02-2.512,0.048-3.712,1.319c-1.549,1.641-1.598,8.46-1.608,6.577
		c-0.007-0.917-0.026-5.253-1.287-6.402c-1.395-1.271-5.382-1.42-4.446-1.446c1.729-0.048,4.209-0.704,4.601-1.327
		c1.307-2.085,1.012-7.594,1.143-6.133C26.663,16.552,26.473,20.14,27.756,22.028z"/>
	<path fill="none" stroke="#CC1111" stroke-width="0.25" stroke-miterlimit="10" d="M26.281,15.815
		c-0.36,7.691-0.277,6.72-5.681,7.16"/>
	<path fill="none" stroke="#BC1111" stroke-width="0.25" stroke-miterlimit="10" d="M26.875,15.815c0,8.524,2.002,7.16,4.986,7.16"
		/>
	<path fill="none" stroke="#C1272D" stroke-width="0.25" stroke-miterlimit="10" d="M27.164,31.307
		c-0.894-8.913,3.491-7.502,5.236-7.502"/>
	<path fill="none" stroke="#C61A4B" stroke-width="0.25" stroke-miterlimit="10" d="M26.281,32.02c0-1.461-0.062-5.821-0.799-6.903
		c-1.068-1.57-3.667-1.293-5.582-1.293"/>
	<path display="none" fill="none" stroke="#2866BF" stroke-width="0.25" stroke-miterlimit="10" d="M25.793,17.256
		c-0.099,4.236-0.674,5.243-3.848,5.243"/>
	<path display="none" fill="none" stroke="#2866BF" stroke-width="0.25" stroke-miterlimit="10" d="M27.386,17.6
		c0.365,6.306,1.931,4.899,4.093,4.899"/>
	<path display="none" fill="none" stroke="#2866BF" stroke-width="0.25" stroke-miterlimit="10" d="M27.515,31.543
		c-0.687-6.924,1.496-7.136,3.708-7.136"/>
</g>
</svg>
