<?xml version="1.0" encoding="utf-8"?>
<!-- Generator: Adobe Illustrator 14.0.0, SVG Export Plug-In . SVG Version: 6.00 Build 43363)  -->
<!DOCTYPE svg PUBLIC "-//W3C//DTD SVG 1.1//EN" "http://www.w3.org/Graphics/SVG/1.1/DTD/svg11.dtd">
<svg version="1.1" xmlns="http://www.w3.org/2000/svg" xmlns:xlink="http://www.w3.org/1999/xlink" x="0px" y="0px" width="800px"
	 height="1065px" viewBox="0 0 800 1065" enable-background="new 0 0 800 1065" xml:space="preserve">
<g id="california">
	<path fill="none" stroke="#000000" d="M81.825,106.078l5,6.5l-1.5,4.5h-2.5l-0.5,4.5h-2l-1.5,2.5l0.5,4l-3,3.5l0.5,4h3.5l5,4v3v3.5
		h3.5v4.5v3v3v2.5v2h-2.5l2.5,3.5v3.5v2.5h-2h-1.5l-0.5,3l-0.333,2l1,3l-1,2h-2l-1,2.667l-1.333,2l2,2.333l2,3.667l0.667,3.667
		l0.333,2.667l0.667,3v3l-1,1.333l0.667,2.667v2.667v2.333l-1,2.333l-0.333,1.667l1,2.333l3.667,1l-2.333,1.333l-1.667,2.333l-1,2
		h-2.333l-0.333-3l-1,3l-0.333,3l0.667,2.333l-0.667,2h-1.667h-1.333v2.333l0.667,2.333h-1l-1.667,2.667l-1.75,2.667l-1.917,1.333
		h-1.333l0.333,3.667v2.667l0.333,2.667l0.667,2l0.333,2.667l-0.667,2.667l2.25,2l1.75,3l2.333,2.333h2l0.417,1.292l0.5,1.375
		l1,1.25l1.25,0.875l1.25,0.75l0.375,1.5l0.375,1.375l1,1.125l1.125,1.375l0.625,1.5l0.125,1.25l0.375,1.125l0.125,1.25v1.625
		l0.375,1.125l0.75,1v0.875l0.875,1.125l1.375,0.75l1.5,1.125l1.125,0.875v1.25v0.875h1.25v0.875l0.625,0.875l0.625,2l0.75,2
		l1.75,1.125l1.125,1.25v1.5l1.25,1.125l2,1.25l1.125,1.375l0.625,1.5l0.625,1.625l1.25,2.125v2.625l0.625,2.25v3v4v5.25v3.5v2
		v1.875v1.5l0.625,1.875v1.5l-0.75,0.875l-0.75,0.875l-0.25,1.375v1.125l-0.25,2l-0.5,2l-0.75,1.25l-0.125,3l-0.25,2.625l0.375,2.75
		l0.625,2.125l0.875,3.5l1.75,1.625v2.5v2.125v1.75v1.75l1.5,0.875v1.375v1.375v1.25l-1.125,1.25v1.875l1.125,1.625l1,2.125v1.75
		l-0.625,1.125l-0.875,1.625l-0.5,1.75c0,0,0.25,1.5,0.375,2s0.625,2.375,0.625,2.375l1,2l1.75,1.5c0,0,0.875,0.75,1.375,0.875
		s1.5,2.25,1.5,2.25l2.375,4.75l1.125,0.75l1.125,2.375l1,2.375l2.125,2l2.25,3.625l3.125,4l2.5,3.5l3.625,3.5l2.5,2l1.5,3
		l1.375,2.75l2.5,1.125l2.375,1.25l1.5,2.25l1.5,1.625l1.75,2.625l1.5,2.25l1.5,2l2.75,2.75l1.75,2.25v2.75l0.625,1.75v2.375
		l1.375,1.875l-0.625,2.25l-1.5,1.125l-0.875,2l1.25,2.625l1.75,1.375v1.75c0,0-1.25,0.875-1.5,1.25s-1.375,2.25-1.375,2.25
		l-0.375,2.125l-1.125,2.125l-0.875,1.875h1.5l1.5,0.625l1-2l1.25-2.25l1-1.5l2.5-0.5l2.25,0.625l1.625,1.625l1,2.375l1.125,3.25
		l1.625,2.25l2.375,1.875c0,0,2-0.875,2,0s1.875,3,1.875,3l1,2.125l2.25,1.5l2.5,0.75h2.25l3.375,0.75l2.25,1.125v2.25v2.625
		l-1.625,3.125c0,0-0.875,2-1,2.625s-0.25,2.625-0.25,2.625l-0.5,2.75c0,0-0.25,2.375-0.25,2.875s-0.375,2.875-0.375,2.875
		l0.5,2.875l1.625,3.375l0.75,2.25l1.125,2.25l0.875,2.75l1,2.875l0.75,3l1.125,2.875v2.625c0,0,0.875,3,1,3.375
		s1.125,2.75,1.125,2.75v2.5l1.625,2c0,0,1.125,0.625,1.375,1s1,1.875,1,1.875s0.375,1,0.75,1.375s0.625,2.625,0.625,2.625l2.25,1.5
		c0,0,1.25,0.375,1.625,0.625s2.625,2.375,2.625,2.375l2,1.875l2.25,1.75l2,0.625h3.125h2.75l2.875,1.125l1.75,2.75v3.25l1,2.125
		l1.5,1.5l2,2v3.625l-1.5,2.75l-1.5,2.375h-2.25l-1.875,0.75l-0.5,1.375l0.625,2.25l0.875,2l0.75,2l0.125,2.625l-0.375,2.5
		l-2.75,0.625h-1.625l-0.125,2.625l1.5,1.5h2.25l1,1.375l-0.25,2l-0.125,2l-0.25,3.375l0.125,2.375l1.25,3l1.625,1.75l3,2.5
		l1.25,2.125l1,1.125l1.875,0.875v2.875l1.375,2.625l1.75,1.625l2.25,2l1.625,2l0.875,2.625v2l1.625,1.375l1.5,1.25l0.75,1.75v1.75
		l2.625,1.875v1.75v2.875l1.125,2.625l2.25,1.625l2.125,2.125l1.875,1.5l0.625,1.625l-1.375,1.375l-1.25,0.625l0.75,1.5h1.875
		l0.875,2v2l1.5,2.625l2,2.375l2.125,1.5l2.5,0.625l2.125,1.125l2.5,0.75h1.625l0.625,2l0.625,1.875l1.375,1.375l2.25,2.5l2.75,1.75
		l1.375,1.625v2l1,1.75c0,0,1.5,0.375,1.875,0s2.625,0.167,2.625,0.167h3.5v2.458v2.5l1.625,2.125l2.625,0.625l1.625,1v2l-2.75,0.75
		l-2,3.5h-1.75l-1.25,2.5l-0.375,2.375l-0.25,3.25c0,0,1.125,2,1.625,2.125s3.25,1.75,3.25,1.75h2.625l1.875,1.375l2.375,0.875
		l2.125,1.5v2v2.125l1.625,1.875v2.75l-1.25,1.625l-1.375,2.25l0.5,2.75l1.125,2.125h2.125l1.75,0.875v1.75l-1.875,1.625l-1,2.375
		l0.5,1.625l2.375,1.375l1.375,1.625v3.625v2.625v2.5l-1.5,2.5l-1,2.25l-1.25,1.625l-0.25,2l1.5,1.25l1.375,1.125l1.125,1.125
		l2.375,1.75c0,0,1.875,1.125,2.25,1.125s1.875,0.625,2.25,0.75s2.625,1.125,2.625,1.125h1.75l2.125,1.5l1.25,0.625v1.375l0.75,1.5
		h1.5h1.5v-1.5l1.375-0.625h2.625l2.5-0.25l3.375,0.25l3-0.25l2.375-0.25l3.75,1l2.125,1.625h2h2l1.875,1.125l1,1.25l1.125,1.5
		h2.625h2.25h2.875h2.125l2.125-0.625l2.75-0.375l2.5-0.625h2.75h2.375l1.875-0.75l2.125,1.375l1,1l1,0.625h1.625l1.25,1.25
		l1.25,1.25l0.875,1.375l1.25,2.25v1.25v2.5l1.875,1.75l2.375,2l2.5,1.875l2.125,2.375l1.75,1.375l1.875,0.875l1.5,1.625l3.375,1.25
		h2.5c0,0,1.625,1.25,2,1.375s2,0.625,2.125,1s1.375,1.625,1.75,2s1.75,1.625,1.75,1.625l1.5,1.375h1.5l1.375-0.625h1.875
		l2.125-0.625l1.375-0.25l1.375-0.25l2.25-0.5l2.625-0.125h1.625l2.375,0.625l3.25,0.375l1.625,1.375l1,2.5l0.625,1.75l1,2.125
		c0,0,1.125,1.75,1.375,2.125s1.25,2.75,1.25,2.75l0.625,2v2.5c0,0,1,2,1,2.375s0.625,1.75,0,2.125s-1.125,1.625-1.125,1.625v1.75
		l1.402,1.25c0,0,0.723-0.625,1.223,0s2,0.625,2.375,0.625s1.375-0.25,1.75,0s3.125,0.875,3.125,0.875s0.875,0.875,1.5,0.875
		s0.875-0.25,1.25,0s2,1,2,1s1.625,1,2.25,1.25s2.25,0.625,2.625,1.25s2,1.5,2.375,1.75s1.625,0.75,2,1s3.375,0.75,3.375,0.75h1.875
		c0,0,1,0.625,1.5,0.625s2.25,1,2.25,1s1.125,0.875,1.5,1.25s2,1.375,2,1.375l1.875,1.125c0,0,1.375,1.5,1.375,1.875
		s0.875,1.625,0.875,1.625l1.125,1l1.875,0.75l0.875,1.375l1,1.25h2l2.5,2l1.25,2.125l1,2.125l1.625,1.75l1.875,1.875l2.25,1.375
		c0,0,1.75,1.5,2.125,1.75s2.25,1.625,2.25,1.625l2.25,2c0,0,1,1.125,1.25,1.5s1.5,2.5,1.5,2.5l1.125,2.375l1.375,2.875
		c0,0-0.375,2.5,0,2.875s0.5,2.625,0.625,3s0,4.375,0,4.375s-0.389,2,0.057,2.375c0.443,0.375,0,1.625,0,1.625l0.197,2
		c0,0-0.254,2-0.504,2.5s-0.5,2-0.5,2l-0.25,1.875l1.254,0.625l2.621,0.75l0.75,1.375c0,0,0.5,1.75,0,2s-1,0.375-1.625,0.875
		s-2.375,2-2.375,2l-0.125,1.875l-2.25,1.75l-0.875,2.25l-0.125,2.375c0,0,0.125,2.75,0.625,2.625s1.625-1.75,1.625-1.75l0.625-1.5
		l0.75-2l1.5-0.875l1.875-1.125c0,0,1.25,0.5,1.625,1.25s2.375,2.875,2.375,2.875l0.75,1.75v1.379l-0.625,2.871l-1,1.75l-0.75-0.75
		l-1-2.25l0.375-2.25l-0.125-1.75l-1.75-0.625l-0.25,2.875c0,0,0.125,2,0.125,2.5s0,2.25,0,2.25s0.375,2.125,0.75,2.375
		s0.875,2.25,1.125,2.625s0.375,2.25,0.625,2.625s1,3,1,3s1.5,1.375,1.5,1.75s1,2.25,1,2.25l1,2.125l1.875,2.25v3.125v3.125v2.625
		l2.375,2.75l3.125,2.75c0,0,1.625,1.5,2.125,1.875s2.5,2.25,2.5,2.25l1.625,2.875v3.25l-0.625,2.5l-0.5,1.125l1.125,2
		c0,0,1.875,1.75,2,2.125s0.875,1.875,1.125,2.25s1.75,2.5,1.75,2.5l0.625,2.125v2l0.75,2.25l0.75,1.5h1.125h1.5l1.5,1l1.375,1.375
		c0,0,0.875,1.375,1.125,1.75s0.75,1,1.25,1.375s1.75,0.25,2.125,0.75s1.125,2.125,1.125,2.125s0,2.75,0,3.125
		s-2.75,2.375-2.75,2.375h-2.25c0,0-0.875-0.625-1.375-0.625s-2-0.125-2-0.125l-0.375,1.875l-0.125,2h115.25h21.25l-1-2.875
		l-3.5-1.875l-5-4.5l-3-3l-3.75-4.25l-4.5-2.875l-3-3.5l-2.5-2.125l-2.125-1.125l-2-1.375l-0.75-1.875v-2l0.125-2l-0.25-2.875
		l-0.375-2.625v-3l0.5-2.375l0.375-2.875l0.875-2.5l2-2.75l1.75-1l1.75-1.375l1.375-1v-2.375l-0.375-2.875l1-1.25l1.375-1.5
		l0.375-1.25v-2.25l0.125-2.125c0,0,0-1.625,0.375-2s1.375-2.375,1.375-2.375s0.5-1.625,0.625-2s1.25-2.125,1.5-2.625
		s1.125-2.25,1.125-2.25l0.75-1.875l0.75-3.875l2.125-3.125l2.375-2.75l2.375-1.875l2.75-1.5l1.75-2.125l1.375-1.625l1-2.25
		l0.625-2.25c0,0,0.25-1.625,0.25-2s0-1.75-0.125-2.25s-0.25-2.375-0.25-2.375l-0.625-2.25l-0.25-1.625c0,0-0.125-1.5-0.75-1.5
		s-1.5-1.5-1.875-1.5s-0.75-0.25-1.625-0.125s-1.875,0-2.5,0s-1.375-0.125-1.875-0.125s-1.75,0-1.75,0s-0.625-0.5-1-0.625
		s-1.125-1.125-1.375-1.5s-0.625-2.125-0.625-2.125s-0.5-1.5-0.625-2s-0.125-1.625-0.125-2.5s0.25-1.375,0.25-2.25
		s0.875-1.125,0.625-2.125s0-1.75-0.25-2.625s-0.125-1.5-0.25-2.001c-0.668-2.688-0.172-5.39,0.379-8.002
		c0.191-0.905,0.426-1.825,0.75-2.75c0.564-1.604,1.637-3.053,2.34-4.652c1.592-3.616-0.576-9.389,2.9-12.119
		c0.941-0.739,2.203-0.761,3.131-1.503c0.92-0.737,1.064-1.766,1.281-2.844c0.445-2.216,0.582-4.477,0.719-6.755
		c0.1-1.657,0.227-3.395,1.094-4.881c0.596-1.02,1.678-1.738,2.133-2.868c0.941-2.343-0.379-4.979-0.855-7.281
		c-0.361-1.749-1.254-4.858-0.471-6.566c0.465-1.013,1.371-1.593,2.189-2.288c0.988-0.841,1.434-1.611,2.072-2.704
		c0.973-1.665,1.986-3.353,2.994-5.004c0.957-1.564,2.35-2.579,3.219-4.149c0.871-1.569,2.121-2.839,3.498-4.007
		c1.629-1.382,3.607-1.998,4.846-3.777c2.168-3.115,2.963-7.266,3.156-10.973c0.098-1.856,0.318-4.139-1.346-5.287
		c-1.455-1.003-3.461-0.781-4.811-2.057c-0.994-0.942-1.596-2.536-2.367-3.655c-4.879-7.056-10.939-16.523-13.477-25.026
		c-1.189-3.988-1.592-8.496-3.625-12.35c-2.133-4.045-6.18-5.687-5.875-10.625l-274-289.5l-57-62.5v-216l-1-68.5l-254.5-2H81.825z"
		/>
</g>
<g id="nevada">
	<path fill="none" stroke="#000000" d="M674.37,744.615L344.249,393.762l0.621-285.647l369,3c0.091,12.33,0.182,24.659,0.272,36.989
		c0.229,31.096,0.459,62.192,0.688,93.288c0.303,41.08,0.605,82.16,0.908,123.24c0.312,42.282,0.624,84.563,0.936,126.845
		c0.256,34.701,0.512,69.402,0.768,104.103c0.087,11.764,0.173,23.527,0.26,35.291c0.043,5.756,0.087,17.769-0.651,22.621
		c-0.452,2.972-1.831,0.072-3.183,2.67c0,0-0.072,5.123-0.868,3.338c-0.693-0.077-1.645-4.863-4.75-5.75
		c-3.5-1-6.209-4.371-7.34-6.337c-1.729-3.007-3.11-1.94-6.41-1.413c-3.691,0.59-7.835,3.342-11,5
		c-3.911,2.051-6.344-1.82-8.979,2.24c-5.164,7.953,0.528,11.531-0.15,20.375c-0.604,7.875-2.171,15.697-1.025,24.025
		c0.673,4.896,1.331,10.853,2.905,15.359c1.19,3.408,3.429,5.319,3.62,9.115c0.219,4.33,0.544,9.32-1.124,12.986
		C677.395,738.074,672.921,742.062,674.37,744.615"/>
</g>
</svg>
