<?xml version="1.0" encoding="utf-8"?>
<!-- Generator: Adobe Illustrator 14.0.0, SVG Export Plug-In . SVG Version: 6.00 Build 43363)  -->
<!DOCTYPE svg PUBLIC "-//W3C//DTD SVG 1.1//EN" "http://www.w3.org/Graphics/SVG/1.1/DTD/svg11.dtd">
<svg version="1.1" id="Layer_1" xmlns="http://www.w3.org/2000/svg" xmlns:xlink="http://www.w3.org/1999/xlink" x="0px" y="0px"
	 width="800px" height="1065px" viewBox="0 0 800 1065" enable-background="new 0 0 800 1065" xml:space="preserve">
<g id="map">
	
		<image overflow="visible" enable-background="new    " width="3333" height="4442" id="_x30_xYePd_2_" xlink:href="postOffice/4378B3F7.jpeg"  transform="matrix(0.24 0 0 0.2398 2 -1)">
	</image>
</g>
<g id="states">
	<g id="california" display="none">
		<path display="inline" fill="none" stroke="#000000" d="M81.825,106.078l5,6.5l-1.5,4.5h-2.5l-0.5,4.5h-2l-1.5,2.5l0.5,4l-3,3.5
			l0.5,4h3.5l5,4v3v3.5h3.5v4.5v3v3v2.5v2h-2.5l2.5,3.5v3.5v2.5h-2h-1.5l-0.5,3l-0.333,2l1,3l-1,2h-2l-1,2.667l-1.333,2l2,2.333
			l2,3.667l0.667,3.667l0.333,2.667l0.667,3v3l-1,1.333l0.667,2.667v2.667v2.333l-1,2.333l-0.333,1.667l1,2.333l3.667,1
			l-2.333,1.333l-1.667,2.333l-1,2h-2.333l-0.333-3l-1,3l-0.333,3l0.667,2.333l-0.667,2h-1.667h-1.333v2.333l0.667,2.333h-1
			l-1.667,2.667l-1.75,2.667l-1.917,1.333h-1.333l0.333,3.667v2.667l0.333,2.667l0.667,2l0.333,2.667l-0.667,2.667l2.25,2l1.75,3
			l2.333,2.333h2l0.417,1.292l0.5,1.375l1,1.25l1.25,0.875l1.25,0.75l0.375,1.5l0.375,1.375l1,1.125l1.125,1.375l0.625,1.5
			l0.125,1.25l0.375,1.125l0.125,1.25v1.625l0.375,1.125l0.75,1v0.875l0.875,1.125l1.375,0.75l1.5,1.125l1.125,0.875v1.25v0.875
			h1.25v0.875l0.625,0.875l0.625,2l0.75,2l1.75,1.125l1.125,1.25v1.5l1.25,1.125l2,1.25l1.125,1.375l0.625,1.5l0.625,1.625
			l1.25,2.125v2.625l0.625,2.25v3v4v5.25v3.5v2v1.875v1.5l0.625,1.875v1.5l-0.75,0.875l-0.75,0.875l-0.25,1.375v1.125l-0.25,2
			l-0.5,2l-0.75,1.25l-0.125,3l-0.25,2.625l0.375,2.75l0.625,2.125l0.875,3.5l1.75,1.625v2.5v2.125v1.75v1.75l1.5,0.875v1.375v1.375
			v1.25l-1.125,1.25v1.875l1.125,1.625l1,2.125v1.75l-0.625,1.125l-0.875,1.625l-0.5,1.75c0,0,0.25,1.5,0.375,2
			s0.625,2.375,0.625,2.375l1,2l1.75,1.5c0,0,0.875,0.75,1.375,0.875s1.5,2.25,1.5,2.25l2.375,4.75l1.125,0.75l1.125,2.375l1,2.375
			l2.125,2l2.25,3.625l3.125,4l2.5,3.5l3.625,3.5l2.5,2l1.5,3l1.375,2.75l2.5,1.125l2.375,1.25l1.5,2.25l1.5,1.625l1.75,2.625
			l1.5,2.25l1.5,2l2.75,2.75l1.75,2.25v2.75l0.625,1.75v2.375l1.375,1.875l-0.625,2.25l-1.5,1.125l-0.875,2l1.25,2.625l1.75,1.375
			v1.75c0,0-1.25,0.875-1.5,1.25s-1.375,2.25-1.375,2.25l-0.375,2.125l-1.125,2.125l-0.875,1.875h1.5l1.5,0.625l1-2l1.25-2.25l1-1.5
			l2.5-0.5l2.25,0.625l1.625,1.625l1,2.375l1.125,3.25l1.625,2.25l2.375,1.875c0,0,2-0.875,2,0s1.875,3,1.875,3l1,2.125l2.25,1.5
			l2.5,0.75h2.25l3.375,0.75l2.25,1.125v2.25v2.625l-1.625,3.125c0,0-0.875,2-1,2.625s-0.25,2.625-0.25,2.625l-0.5,2.75
			c0,0-0.25,2.375-0.25,2.875s-0.375,2.875-0.375,2.875l0.5,2.875l1.625,3.375l0.75,2.25l1.125,2.25l0.875,2.75l1,2.875l0.75,3
			l1.125,2.875v2.625c0,0,0.875,3,1,3.375s1.125,2.75,1.125,2.75v2.5l1.625,2c0,0,1.125,0.625,1.375,1s1,1.875,1,1.875
			s0.375,1,0.75,1.375s0.625,2.625,0.625,2.625l2.25,1.5c0,0,1.25,0.375,1.625,0.625s2.625,2.375,2.625,2.375l2,1.875l2.25,1.75
			l2,0.625h3.125h2.75l2.875,1.125l1.75,2.75v3.25l1,2.125l1.5,1.5l2,2v3.625l-1.5,2.75l-1.5,2.375h-2.25l-1.875,0.75l-0.5,1.375
			l0.625,2.25l0.875,2l0.75,2l0.125,2.625l-0.375,2.5l-2.75,0.625h-1.625l-0.125,2.625l1.5,1.5h2.25l1,1.375l-0.25,2l-0.125,2
			l-0.25,3.375l0.125,2.375l1.25,3l1.625,1.75l3,2.5l1.25,2.125l1,1.125l1.875,0.875v2.875l1.375,2.625l1.75,1.625l2.25,2l1.625,2
			l0.875,2.625v2l1.625,1.375l1.5,1.25l0.75,1.75v1.75l2.625,1.875v1.75v2.875l1.125,2.625l2.25,1.625l2.125,2.125l1.875,1.5
			l0.625,1.625l-1.375,1.375l-1.25,0.625l0.75,1.5h1.875l0.875,2v2l1.5,2.625l2,2.375l2.125,1.5l2.5,0.625l2.125,1.125l2.5,0.75
			h1.625l0.625,2l0.625,1.875l1.375,1.375l2.25,2.5l2.75,1.75l1.375,1.625v2l1,1.75c0,0,1.5,0.375,1.875,0s2.625,0.167,2.625,0.167
			h3.5v2.458v2.5l1.625,2.125l2.625,0.625l1.625,1v2l-2.75,0.75l-2,3.5h-1.75l-1.25,2.5l-0.375,2.375l-0.25,3.25
			c0,0,1.125,2,1.625,2.125s3.25,1.75,3.25,1.75h2.625l1.875,1.375l2.375,0.875l2.125,1.5v2v2.125l1.625,1.875v2.75l-1.25,1.625
			l-1.375,2.25l0.5,2.75l1.125,2.125h2.125l1.75,0.875v1.75l-1.875,1.625l-1,2.375l0.5,1.625l2.375,1.375l1.375,1.625v3.625v2.625
			v2.5l-1.5,2.5l-1,2.25l-1.25,1.625l-0.25,2l1.5,1.25l1.375,1.125l1.125,1.125l2.375,1.75c0,0,1.875,1.125,2.25,1.125
			s1.875,0.625,2.25,0.75s2.625,1.125,2.625,1.125h1.75l2.125,1.5l1.25,0.625v1.375l0.75,1.5h1.5h1.5v-1.5l1.375-0.625h2.625
			l2.5-0.25l3.375,0.25l3-0.25l2.375-0.25l3.75,1l2.125,1.625h2h2l1.875,1.125l1,1.25l1.125,1.5h2.625h2.25h2.875h2.125l2.125-0.625
			l2.75-0.375l2.5-0.625h2.75h2.375l1.875-0.75l2.125,1.375l1,1l1,0.625h1.625l1.25,1.25l1.25,1.25l0.875,1.375l1.25,2.25v1.25v2.5
			l1.875,1.75l2.375,2l2.5,1.875l2.125,2.375l1.75,1.375l1.875,0.875l1.5,1.625l3.375,1.25h2.5c0,0,1.625,1.25,2,1.375
			s2,0.625,2.125,1s1.375,1.625,1.75,2s1.75,1.625,1.75,1.625l1.5,1.375h1.5l1.375-0.625h1.875l2.125-0.625l1.375-0.25l1.375-0.25
			l2.25-0.5l2.625-0.125h1.625l2.375,0.625l3.25,0.375l1.625,1.375l1,2.5l0.625,1.75l1,2.125c0,0,1.125,1.75,1.375,2.125
			s1.25,2.75,1.25,2.75l0.625,2v2.5c0,0,1,2,1,2.375s0.625,1.75,0,2.125s-1.125,1.625-1.125,1.625v1.75l1.4,1.25
			c0,0,0.725-0.625,1.225,0s2,0.625,2.375,0.625s1.375-0.25,1.75,0s3.125,0.875,3.125,0.875s0.875,0.875,1.5,0.875
			s0.875-0.25,1.25,0s2,1,2,1s1.625,1,2.25,1.25s2.25,0.625,2.625,1.25s2,1.5,2.375,1.75s1.625,0.75,2,1s3.375,0.75,3.375,0.75
			h1.875c0,0,1,0.625,1.5,0.625s2.25,1,2.25,1s1.125,0.875,1.5,1.25s2,1.375,2,1.375l1.875,1.125c0,0,1.375,1.5,1.375,1.875
			s0.875,1.625,0.875,1.625l1.125,1l1.875,0.75l0.875,1.375l1,1.25h2l2.5,2l1.25,2.125l1,2.125l1.625,1.75l1.875,1.875l2.25,1.375
			c0,0,1.75,1.5,2.125,1.75s2.25,1.625,2.25,1.625l2.25,2c0,0,1,1.125,1.25,1.5s1.5,2.5,1.5,2.5l1.125,2.375l1.375,2.875
			c0,0-0.375,2.5,0,2.875s0.5,2.625,0.625,3s0,4.375,0,4.375s-0.389,2,0.057,2.375c0.443,0.375,0,1.625,0,1.625l0.197,2
			c0,0-0.254,2-0.504,2.5s-0.5,2-0.5,2l-0.25,1.875l1.254,0.625l2.621,0.75l0.75,1.375c0,0,0.5,1.75,0,2s-1,0.375-1.625,0.875
			s-2.375,2-2.375,2l-0.125,1.875l-2.25,1.75l-0.875,2.25l-0.125,2.375c0,0,0.125,2.75,0.625,2.625s1.625-1.75,1.625-1.75l0.625-1.5
			l0.75-2l1.5-0.875l1.875-1.125c0,0,1.25,0.5,1.625,1.25s2.375,2.875,2.375,2.875l0.75,1.75v1.379l-0.625,2.871l-1,1.75l-0.75-0.75
			l-1-2.25l0.375-2.25l-0.125-1.75l-1.75-0.625l-0.25,2.875c0,0,0.125,2,0.125,2.5s0,2.25,0,2.25s0.375,2.125,0.75,2.375
			s0.875,2.25,1.125,2.625s0.375,2.25,0.625,2.625s1,3,1,3s1.5,1.375,1.5,1.75s1,2.25,1,2.25l1,2.125l1.875,2.25v3.125v3.125v2.625
			l2.375,2.75l3.125,2.75c0,0,1.625,1.5,2.125,1.875s2.5,2.25,2.5,2.25l1.625,2.875v3.25l-0.625,2.5l-0.5,1.125l1.125,2
			c0,0,1.875,1.75,2,2.125s0.875,1.875,1.125,2.25s1.75,2.5,1.75,2.5l0.625,2.125v2l0.75,2.25l0.75,1.5h1.125h1.5l1.5,1l1.375,1.375
			c0,0,0.875,1.375,1.125,1.75s0.75,1,1.25,1.375s1.75,0.25,2.125,0.75s1.125,2.125,1.125,2.125s0,2.75,0,3.125
			s-2.75,2.375-2.75,2.375h-2.25c0,0-0.875-0.625-1.375-0.625s-2-0.125-2-0.125l-0.375,1.875l-0.125,2h115.25h21.25l-1-2.875
			l-3.5-1.875l-5-4.5l-3-3l-3.75-4.25l-4.5-2.875l-3-3.5l-2.5-2.125l-2.125-1.125l-2-1.375l-0.75-1.875v-2l0.125-2l-0.25-2.875
			l-0.375-2.625v-3l0.5-2.375l0.375-2.875l0.875-2.5l2-2.75l1.75-1l1.75-1.375l1.375-1v-2.375l-0.375-2.875l1-1.25l1.375-1.5
			l0.375-1.25v-2.25l0.125-2.125c0,0,0-1.625,0.375-2s1.375-2.375,1.375-2.375s0.5-1.625,0.625-2s1.25-2.125,1.5-2.625
			s1.125-2.25,1.125-2.25l0.75-1.875l0.75-3.875l2.125-3.125l2.375-2.75l2.375-1.875l2.75-1.5l1.75-2.125l1.375-1.625l1-2.25
			l0.625-2.25c0,0,0.25-1.625,0.25-2s0-1.75-0.125-2.25s-0.25-2.375-0.25-2.375l-0.625-2.25l-0.25-1.625c0,0-0.125-1.5-0.75-1.5
			s-1.5-1.5-1.875-1.5s-0.75-0.25-1.625-0.125s-1.875,0-2.5,0s-1.375-0.125-1.875-0.125s-1.75,0-1.75,0s-0.625-0.5-1-0.625
			s-1.125-1.125-1.375-1.5s-0.625-2.125-0.625-2.125s-0.5-1.5-0.625-2s-0.125-1.625-0.125-2.5s0.25-1.375,0.25-2.25
			s0.875-1.125,0.625-2.125s0-1.75-0.25-2.625s-0.125-1.5-0.25-2.001c-0.668-2.688-0.172-5.391,0.379-8.002
			c0.191-0.905,0.426-1.825,0.75-2.75c0.564-1.604,1.637-3.053,2.34-4.652c1.592-3.616-0.576-9.389,2.9-12.119
			c0.939-0.737,2.203-0.761,3.131-1.503c0.92-0.735,1.062-1.766,1.281-2.844c0.443-2.216,0.582-4.477,0.719-6.755
			c0.1-1.657,0.227-3.396,1.094-4.881c0.597-1.021,1.678-1.738,2.133-2.868c0.941-2.343-0.379-4.979-0.854-7.281
			c-0.361-1.749-1.254-4.856-0.471-6.564c0.465-1.015,1.369-1.595,2.188-2.288c0.988-0.842,1.435-1.611,2.072-2.704
			c0.973-1.665,1.985-3.354,2.994-5.004c0.957-1.564,2.35-2.579,3.219-4.149c0.871-1.568,2.121-2.839,3.498-4.007
			c1.629-1.382,3.605-1.998,4.846-3.777c2.168-3.113,2.963-7.266,3.156-10.973c0.098-1.856,0.318-4.139-1.346-5.287
			c-1.455-1.003-3.461-0.781-4.812-2.057c-0.994-0.942-1.596-2.536-2.367-3.655c-4.879-7.056-10.938-16.523-13.477-25.026
			c-1.189-3.986-1.592-8.496-3.625-12.35c-2.133-4.045-6.18-5.688-5.875-10.625l-274-289.5l-57-62.5v-216l-1-68.5l-254.5-2h-7.001
			L81.825,106.078L81.825,106.078z"/>
	</g>
	<g id="nevada" display="none">
		<path display="inline" fill="none" stroke="#000000" d="M674.37,744.615L344.249,393.762l0.621-285.647l369,3
			c0.091,12.33,0.182,24.659,0.271,36.989c0.229,31.096,0.459,62.192,0.688,93.288c0.303,41.08,0.604,82.16,0.908,123.24
			c0.312,42.282,0.624,84.563,0.936,126.845c0.256,34.701,0.512,69.402,0.77,104.104c0.087,11.764,0.173,23.527,0.26,35.291
			c0.043,5.756,0.087,17.769-0.651,22.621c-0.452,2.972-1.831,0.072-3.183,2.67c0,0-0.072,5.123-0.868,3.338
			c-0.693-0.077-1.645-4.863-4.75-5.75c-3.5-1-6.209-4.371-7.34-6.337c-1.729-3.007-3.11-1.94-6.41-1.413
			c-3.691,0.59-7.835,3.342-11,5c-3.911,2.051-6.344-1.82-8.979,2.24c-5.164,7.953,0.526,11.53-0.15,20.375
			c-0.604,7.875-2.171,15.695-1.025,24.023c0.673,4.896,1.331,10.854,2.905,15.359c1.19,3.408,3.429,5.319,3.62,9.115
			c0.219,4.33,0.544,9.318-1.124,12.984C677.395,738.074,672.921,742.062,674.37,744.615"/>
	</g>
</g>
<g id="counties">
	<path id="del_norte" fill="none" d="M92.333,151.333c-3.159,0.047-1.899-1.619-3-3.333c-1.073-1.672-2.218-1.88-3.074-3.926
		c-1.457-3.483-0.833-6.393-5.176-8.157c-1.665-0.677-3.324-0.257-4.416-1.918c-1.932-2.939,1.232-3.336,2.007-4.657
		c1.755-2.989-2.278-8.654,3.941-8.059c0.715-4.451-1.295-4.55,3.667-4.667c0.173-3.032,0.158-3.891-1.032-6.2
		c-0.865-1.679-2.228-3.488-3.349-5.032c-0.118-0.129-0.123-0.123-0.017,0.017c2.274,1.274,4.187-0.07,6.45-0.066
		c2.286,0.004,4.482,0.668,6.999,0.666c5.136-0.005,9.898,0.333,15,0.333c5.083,0,9.853,0.501,14.926,0.259
		c4.052-0.193,10.52-1.746,14.35-0.201c0.08,3.467-0.637,5.487-1.666,8.884c-2.349,1.308-0.074,5.197-0.327,7.341
		c-5.148-1.055-0.363,8.137,0.401,10.033c0.896,2.225,1.354,10.868,4.266,10.401c-0.166,1.305,0.563,2.56,0.991,3.559
		c-8.084,4.982-18.066-9.36-25.032-0.034c-2.646,3.543-4.65,7.586-5.899,11.75c-1.195,3.984-2.915,12.408-7.342,6.674
		c-0.941-1.219-2.621-2.597-3.341-3.659c-0.955-1.41-0.758-3.676-1.733-5.267c-1.184-1.932-5.751-5.879-7.926-4.741"/>
	<path id="tehama" fill="none" d="M151.833,295.667c1.793-4.823,0.562-13.333,0.333-18.333c-0.134-2.944-0.774-6.022-0.333-9
		c0.384-2.595,1.891-5.188,3.221-7.377c5.089,2.63,15.261,0.71,21.071,0.71c6.101,0,22.051-2.978,25.3,4.074
		c1.039,2.254-0.406,4.054,3.075,5.341c4.163,1.539,11.19-2.801,14.749-4.674c9.125-4.804,18.692-7.786,27.992-11.992
		c2.149-0.972,4.761-3.615,6.927-4.098c2.414-0.538,6.913,0.916,6.615,3.958c-2.219,0.517-4.401,1.861-4.949,4.059
		c-0.322,1.295,0.621,2.265,0.266,3.599c-0.267,1.002-1.627,1.548-1.933,2.734c-0.699,2.722,1.562,4.114,2.332,6.332
		c1.05,3.023-0.187,2.881-2.574,4.426c-3.886,2.516-8.407,6.009-10.018,10.323c-0.87,2.33-0.709,4.75-2.409,6.584
		c-1.845,1.992-3.022,2.004-4.25,4.75c-1.318,2.948-1.135,8.141-4.067,9.925c-3.303,2.01-8.277,0.996-11.684,0.66
		c-4.022-0.396-7.854,0.007-9.349,3.981c-0.657,1.747,0.32,3.885-2.049,4.951c-1.902,0.855-4.038-0.684-5.934,0.066l-38,0.201
		l-5.333-20.354l-8.576-0.832"/>
	<path id="plumas" fill="none" d="M260.833,250.333c-0.538,3.485-3.434,3.992-5.416,6.259c-2.023,2.315-0.234,4.292-0.667,7
		c-0.601,3.765-0.456,4.044,1.081,7.409c1.85,4.049,0.001,3.986-2.283,6.389c-0.124,2.491-0.358,5.311,0.676,7.551
		c2.337,0.143,6.85-0.005,5.208,3.992c-0.398,0.969-2.054,0.87-2.682,1.653c-0.743,0.925-0.892,2.398-1.335,3.404
		c-1.785,4.054-5.478,7.888-6.551,12.017c3.048,1.618,5.492,3.087,8.375,5.568c2.686,2.311,4.674,5.527,7.608,7.472
		c2.152-2.77,5.859-10.335,10.25-8.313c0.842,0.388,0.422,2.267,1.466,2.531c0.953,0.242,2.004-1.018,2.935-1.265
		c2.608-0.69,4.862-0.365,7.316,0.015c1.62,0.251,5.435,0.772,6.951-0.083c1.943-1.095,1.578-4.318,4.317-2.184
		c3.942,3.071-2.246,8.296-1.867,11.867c5.904,0.319,10.703,1.571,16.567,0.001c0-0.393,0.094-0.841,0.1-1.234
		c0.555-0.169,1.679-0.172,2.234-0.001c0.029,0.631,0.383,0.971,0.439,1.559c2.754,0.148,4.685,0.245,7.276-0.015
		c2.731-0.273,4.136,0.387,6.407,0.48c6.724,0.276,5.159-6.706,4.926-11.408c-0.064-1.301,0.069-2.501-0.324-3.659
		c-0.396-1.165-1.647-1.99-1.934-2.75c-0.367-0.978-0.091-2.546-0.317-3.184c-0.377-1.064-1.445-1.8-1.755-3.074
		c-0.62-2.543,1.332-4.262-0.419-6.992c-1.199-1.869-3.178-3.814-4.492-5.692c-2.708-3.872-6.84-4.509-10.417-8.048
		c-3.184-3.15-5.938-6.443-9.423-8.852c-3.286-2.271-6.696-8.307-10.342-4.84c-1.949,1.854-0.998,5.197-2.56,6.514
		c-1.013,0.854-2.879-0.187-4.015,0.244c-1.493,0.566-1.309,1.497-2.417,2.257c-1.54,1.054-2.134,0.709-3.925,1.401
		c-1.491,0.576-2.31,1.948-3.934,1.95c-0.489-1.429-0.575-2.972-1.425-4.274c4.556-3.123,0.383-4.747-1.057-7.578
		c-1.384-2.721-0.467-8.565-0.626-11.707c-2.433-0.056-4.441-1.3-6.875-1.458c-2.313-0.15-4.27,0.745-6.683,0.683
		c-0.089-0.379-0.253-0.599-0.392-0.942"/>
	<path id="butte" fill="none" d="M253.5,276.333c0.749,2.214,0.267,4.947,0.383,7.284c2.384,0.76,5.547-0.69,4.957,3.057
		c-0.282,1.791-2.687,3.739-3.331,5.668c-0.746,2.236-0.375,5.17-1.325,7.325c-1.089,2.469-3.495,3.565-5.049,5.666
		c1.896,1.504,3.265,1.571,4.95,3.758c1.639,2.127,2.901,4.556,4.991,6.333c3.401,2.894,7.245,5.349,10.832,7.834
		c3.028,2.098,9.867,4.594,8.591,9.056c-1.03,3.603-7.522,6.24-10.089,8.936c-3.094,3.25-6.236,7.307-8.826,10.501
		c-2.24,2.762-6.175,8.599-10.083,8.265c-2.874-0.245-4.379-2.695-7.317-1.001c-2.906,1.676,0.059,3.074-1.674,5.994
		c-1.895,3.194-11.133,2.931-14.684,3.316c-0.932,0.101-1.979,0.404-2.942,0.641c-0.091-1.803-0.035-3.63-0.394-5.291
		c-0.498-2.303-0.139-2.552-0.057-4.676c0.105-2.723-2.91-8.354,1.008-9.391c0.158-2.705,2.511-12.652-0.893-12.658
		c-0.14-2.658-0.035-3.285-1.456-5.218c-0.754-1.028-3.696-1.875-2.852-4.139c1.14-3.052,3.149,0.656,5.19-0.661
		c2.413-1.557-0.12-3.723-2.215-3.316c-0.156-3.106,0.623-3.936-2.049-4.949c-1.613-0.611-4.187,0.92-4.384-2.285
		c-7.24,0.363-2.354-7.283,1.465-8.975c4.685-2.077,9.871,1.614,14.577-0.482c4.489-2,5.045-8.597,7.925-12.349
		c3.027-3.945,5.163-8.179,8.165-12.152c1.556-2.059,3.844-7.49,6.917-5.425"/>
	<path id="sierra" fill="none" d="M277.833,337.333c1.39-2.333-0.059-4.433,3.001-5.333c2.896-0.851,3.8,1.35,5.591-2.075
		c1.205-2.303,0.257-4.049,3.066-5.267c1.167-0.505,2.615-0.131,3.933-0.733c1.008-0.461,1.461-1.615,2.684-1.984
		c-0.496-3.945,3.857-0.912,5.382-0.34c2.447,0.917,4.954,0.589,7.684,0.724c2.473,0.123,5.436,0.674,7.992,0.673
		c3.004-0.001,4.702-2.114,7.333-2.257c2.055-0.112,5.011,1.574,7.341,1.917c1.293,0.19,6.863-0.231,7.675,0.317
		c1.112,0.751,1.187,5.825,1.726,7.35c0.92,2.604,1.739,5.165,1.593,8.007c-0.125,2.464-0.854,6.201-3.667,7.334
		c-3.231,1.301-7.53-0.348-11,0.333c-3.457,0.678-5.17,3.583-8.684,4.017c-1.917,0.237-2.634-0.17-4.666,0.9
		c-1.563,0.823-1.985,2.087-3.927,2.04c-0.572-3.598,2.404-4.644-1.374-7.382c-3.43-2.486-6.091-1.945-5.259,2
		c0.741,3.515,0.824,6.423-3.507,3.507c-2.515-1.693-4.085-4.718-7.526-4.024c-1.08,5.806-13.009,7.263-17.325,10.241
		c-0.141-2.139-0.367-4.639-0.4-6.625c-0.065-3.923,1.095-3.035,3.259-5.416c2.229-2.452,0.801-1.705-0.5-4.017
		c-1.444-2.568-0.506-2.712,0.574-5.242"/>
	<path id="colusa" fill="none" d="M165.5,315.333c7.664,0.269,15.327,0.539,22.99,0.808c4.984,0.175,9.967,0.35,14.951,0.525
		c1.47,0.052,3.13,0.332,4.593,0.161c2.165-0.253,4.696-2.974,6.716-2.077c0.866,0.385,1.013,1.707,1.759,2.241
		c0.488,0.349,2.904,0.874,3.007,0.993c0.901,1.037,0.028,2.259,0.718,3.282c0.597,0.884,2.274,0.531,2.848,1.469
		c2.125,3.475-1.316,4.368-3.865,3.983c-0.046,2.807,5.12,5.591,1.917,7.283c1.292,1.78,3.421,2.785,4.105,4.334
		c1.015,2.301-1.024,4.461-1.488,6.583c-0.261,1.195-0.111,2.464-0.177,3.749c-0.031,0.594,0.453,1.3,0.266,2.008
		c-0.181,0.685-0.973,0.714-1.105,1.234c-0.739,2.9,0.287,3.308,0.766,6.425c0.438,2.85-1.351,4.392-1.259,6.926
		c0.085,2.353,1.193,4.31,0.918,7.074c-0.399,4.009-1.172,13.398,6.291,9.368c0.114,1.4-0.462,3.37-0.224,4.566
		c0.23,1.153,1.375,2.292,1.607,3.733c0.407,2.524,0.977,5.625,0.951,8.283c-2.386-0.122-4.144,1.944-6.284,2.383
		c-2.887,0.591-4.44-0.714-6.749-1.583c-4.452-1.674-9.615-1.067-13.991-3.342c-2.326-1.21-3.505-2.544-6.259-2.741
		c-1.85-0.133-6.058,1.557-7.333,1.005c-2.03-0.878-1.763-4.542-1.25-6.589c0.843-3.365,1.298-2.583-1.491-5.325
		c-4.815-4.733-6.079-13.821-11.868-16.482c-0.061-2.367-0.224-3.942-1.309-6.032c-0.953-1.836-2.16-2.199-2.083-4.577
		L165.5,315.333z"/>
	<path id="mendocino" fill="none" d="M95.5,293.667l64.333,2.847l13.868,60.785H170.5h-2.333H165.5l-3.667,0.393
		c0,0-2.333,2.308-3.333,3.308s-4.333,3.667-4.667,4.667s-1.861,3.3-1.861,3.3l-0.292,4.7L149.833,378l-0.333,5.333l2.181,3.667
		l0.292,3.333V394l3.412,3.333l1.782,3.481l2.333,2.519l1.667,3l-4.333,1.333L151.681,409h-4.847h-4l-4.333,1.333h-3.899
		L129.833,412c0,0-2.484,1.987-2.5,2c-1.046,0.836-6.731,0.933-7.792-0.001c-1.355-1.193-0.531-2.578-1.011-4.083
		c-0.628-1.969-2.143-3.645-3.282-5.33c-1.437-2.125-3.222-2.85-4.415-5.251c-1.28-2.578-1.648-5.24-1.344-8.017
		c0.327-2.984,0.385-3.824-0.574-6.723c-1.114-3.368,0.543-2.765,0.917-5.928c0.341-2.892-2.316-4.056-2.34-7.006
		c-0.01-1.186,0.999-2.243,0.625-3.585c-0.23-0.823-1.906-2.017-2.274-3.066c-0.633-1.808-1.022-5.972-1.1-7.584
		c-0.081-1.694,0.207-5.156,0.805-7.042c0.31-0.094,0.604-0.047,0.92-0.115c-0.487-2.087,0.231-4.963,0.625-7.008
		c0.526-2.738-0.125-4.032-0.258-6.925c-0.239-5.226,0.656-10.988,0.666-16.334c0.01-5.743-1.69-9.173-5.017-13.333
		c-1.362-1.703-2.203-3.746-3.632-5.352c-1.185-1.332-1.245-0.217-2.017-2.315c-0.483-1.311,0.035-2.673-0.667-4.016
		c-0.21-0.401-0.687-1.007-0.999-1.317"/>
	<path id="lake" fill="none" d="M173.167,356c-4.215-1.044-9.343,1.751-13,3.666c-4.055,2.123-6.077,5.124-7.926,9.334
		c-4.627,10.536-2.729,19.906,3.674,28.999c1.476,2.095,2.595,4.387,4.177,6.417c1.3,1.666,3.125,2.699,4.481,4.177
		c2.915,3.175,4.945,7.677,7.833,10.5c1.014,0.991,1.36,0.913,2.426,1.574c0.029,0.018,3.398,2.119,3,2.016
		c2.648,0.684,1.428-2.191,3.584-4.099c3.741-3.309,11.601,1.977,11.433-4.584c-0.058-2.285-1.809-4.247-1.684-6.667
		c0.053-1.021,0.954-2.304,0.925-3.075c-0.056-1.438-1.003-1.943-1.274-3.241c-0.537-2.572,0.064-5.478-0.318-8.018
		c-0.185-1.221-0.893-2.75-0.682-3.999c0.2-1.177,1.79-1.929,1.941-3.077c0.384-2.926-2.08-2.83-3.682-4.509
		c-1.337-1.402-2.215-3.501-3.485-5.166c-2.56-3.356-3.591-10.764-9.374-9.967c0.308-2.583-1.125-2.659-1.725-4.608
		c-0.551-1.792,0.238-3.939-1.325-5.341"/>
	<path id="sutter" fill="none" d="M223.5,368.667c-0.594,1.762,0.432,3.274-0.083,5.267c-0.545,2.108-1.439,2.331-1.231,4.715
		c0.084,0.961,0.295,4.483,1.381,4.951c2.266,0.976,2.431-2.36,3.609-3.314c2.144,2.39,4.854,6.638,4.341,10.065
		c-0.352,2.35-1.241,2.142,0.235,4.734c0.815,1.432,2.064,2.614,3.166,3.834c3.298,3.652,1.453,5.062,0.25,9.416
		c-1.019,3.688-1.642,8.748-1.592,12.64c1.149-2.148,3.931-7.688,7.015-6.322c2.235,0.99,0.948,2.501,4.225,2.682
		c1.891,0.104,4.27-0.28,6.302-0.383c0.435-2.688-0.126-6.166-0.266-8.967c-0.188-3.773-1.167-4.601,2.651-5.648
		c3.555-0.976,4.051-1.322,3.591-5.593c-0.435-4.038-1.918-2.253-3.593-4.773c-1.079,1.634-1.853,1.557-3.333,2.366
		c-0.645,0.353-1.504,0.242-2.259,0.667c-0.742,0.417-0.502,1.75-1.142,2.007c-4.705,1.889-2.832-4.595-1.648-6.59
		c-3.959-3.241-3.26-7.423-3.969-11.749c-0.669-4.084-3.528-7.359-4.707-11.276c-4.698-0.275-9.175,0.424-13.89,0.658
		c-0.294,0.638,0.151,0.651,0.282,0.951"/>
	<path id="lassen" fill="none" d="M259,177c0,22.689-0.522,45.439,0,68.122c0.154,6.697,5.909,4.489,11.325,5.554
		c5.713,1.123,4.728,2.221,4.658,7.658c-0.023,1.767-0.198,4.241,0.935,5.683c1.265,1.61,3.016,0.957,4.415,2.059
		c3.726,2.936-0.581,6.979,0.059,10.882c1.799-0.645,2.091-3.236,3.526-4.634c2.301-2.24,3.443-0.943,6.1-1.341
		c3.378-0.507,1.442-1.311,2.958-3.984c0.568-1.002,3.755-4.771,4.31-4.956c0.19,0.227-0.012,0.633,0.097,0.908
		c0.852-0.302,1.171,0.153,1.967-0.501c0.061,3.343,2.493,4.203,4.917,5.625c2.563,1.502,4.348,3.393,6.317,5.683
		c1.632,1.898,3.449,4.404,5.333,6c2.155,1.825,4.59,2.615,6.684,4.543c0.096-0.321,0.024-0.604,0.115-0.925
		c3.028,0.703,5.45,5.438,6.301,8.275c0.546,1.819,1.139,4.423,0.982,6.349c-0.157,1.951-2.105,4.194-0.082,5.877
		c1.178,0.98,1.99-0.081,3.276,2.02c0.659,1.079,1.717,3.57,2.113,4.747c1.136,3.348,0.686,7.934-0.266,11.3
		c2.111,0.122,4.413-0.236,6.291,0.725L343.667,177H259z"/>
	<rect id="modoc" x="249" y="107.333" fill="none" width="94.333" height="69.667"/>
	<path id="siskiyou" fill="none" d="M121.649,141.574c4.139-1.2,9.911,2.38,13.608,4.174c3.143,1.525,12.077,4.597,7.825-2.166
		c-1.343-2.136-3.173-3.182-4.083-5.584c-0.92-2.428-0.58-5.464-1.383-7.951c-0.567,0.072-1.359-0.212-1.917-0.099
		c2.121-2.325-0.257-4.184,0.383-6.867c0.318-1.333,1.474-1.124,1.591-3.092c0.077-1.299-1.156-2.104-0.958-3.609
		c3.333,0.02,1.103-2.717,1.284-4.382c0.217-1.986,1.769-2.836,1.258-5.295c-0.136-0.02-0.225,0.033-0.267,0.156
		c0.074-0.232-0.068-0.399-0.201-0.555c10.901,0.279,21.915,1.359,32.875,1.359c5.628,0,11.035-0.333,16.667-0.333
		c5.615,0,10.746,0.931,16.333,0.667c7.153-0.339,13.82,0.333,21,0.333c3.814,0,7.618-0.278,11.425-0.468
		c2.348-0.118,8.205-1.371,10.257-0.186c3.991,2.305,0.492,11.535,0.317,15.32c-0.256,5.561,0.333,10.874,0.333,16.333
		c0,5.539,0.661,10.436,0.667,16c0.005,5.505-1.348,10.187-1.074,15.67c0.261,5.231,0.811,8.097-4.916,7.311
		c-3.496-0.48-6.842-1.958-10.344-2.331c-5.442-0.58-11.444,0.593-16.667,1.017c-5.345,0.434-10.671-0.201-16.008,0.326
		c-5.18,0.511-10.972,1.199-16.326,0.415c-3.109-0.455-9.767-2.202-12.999-0.757c-1.578,0.705-2.503,2.912-3.91,4.099
		c-1.37,1.155-3.181,1.971-4.758,2.584c-3.597,1.398-5.147,4.158-8.659,5.991c-3.85,2.008-7.424,4.671-11.291,6.651
		c0.738-8.193-7.675-2.204-10.041-5.984c-1.932-3.088,0.018-12.131,0.332-15.649c0.446-4.998,0.925-10.525-5.01-11.341
		c-6.022-0.826-18.544,10.514-17.352-2.261C110.304,154.022,114.076,143.77,121.649,141.574z"/>
	<path id="shasta" fill="none" d="M174.333,193c-0.216,2.828-0.709,4.47-1.658,6.992c-0.943,2.507-0.936,4.883-1.676,7.341
		c-1.458,4.843-5.132,8.169-6.25,13.408c-1.23,5.757-0.648,10.563-0.082,16.259c0.256,2.573-0.408,4.683-1.017,6.982
		c-0.692,2.614-1.761,3.506-2.9,5.767c-1.046,2.076-0.696,4.765-2.183,6.924c-1.416,2.057-2.66,2.328-3.182,5.278
		c3.826,0.552,8.199-0.951,12.282-0.951c5.399,0,10.733,0.32,16.073,0.515c4.787,0.174,9.996-2.428,14.583-0.097
		c2.457,1.249,2.708,4.074,3.695,6.266c0.785,1.743-0.059,0.89,1.658,2.308c0.904,0.747,1.897,1.571,2.991,2.042
		c3.406-2.414,8.847-3.072,12.667-5.033c4.206-2.158,8.267-4.113,12.584-6.083c7.042-3.214,13.753-7.188,21.008-9.927
		c4.627-1.747,4.682-1.073,4.617-6.02c-0.055-4.114,0.791-8.189,0.791-12.304c0-5.447,0.131-10.936,0.675-16.333
		c1.101-10.924,0.723-22.498-0.341-33.333c-0.424-4.317,0.756-5.778-4.211-6.711c-3.636-0.684-7.464-0.141-11.123,0.045
		c-5.472,0.278-11.122,0.47-16.667,0.741c-10.618,0.519-21.515,0.926-32.333,0.926c-3.468,0-13.751-2.365-16.551-0.169
		C175.923,179.289,174.55,190.15,174.333,193z"/>
	<path id="trinity" fill="none" d="M127.333,206.333c2.237-2.02,4.647-3.005,7.001-4.733c1.853-1.361,3.212-4.137,5.315-4.95
		c1.111-0.429,2.888,0.551,3.951-0.05c1.069-0.606,1.048-2.175,1.808-2.859c1.699-1.53,4.573-2.634,6.592-4
		c1.996-1.35,4.09-1.989,5.758-3.741c0.69-0.725,0.711-2.069,1.642-2.601c1.125-0.642,3.062,0.345,4.275-0.059
		c3.163-1.052,8.162-10.068,12.342-6.357c2.013,1.788-1.701,11.048-2.024,13.675c-0.618,5.02-2.069,9.515-3.009,14.324
		c-0.979,5.003-4.151,8.46-5.39,13.352c-1.328,5.246-2.593,9.633-2.593,15.332c0,9.468-1.643,20.084-7.416,27.594
		c-1.766,2.296-2.635,3.945-3.333,6.656c-0.33,1.28-0.799,1.601-0.9,3.083c-0.102,1.486,0.239,2.842,0.316,4.325
		c0.304,5.837,0.089,11.631,0.333,17.349c0.049,1.138,0.184,2.178,0.283,3.275c-6.438-0.335-12.189,1.427-18.566,0
		c0.18-10.936-0.862-22.115-1.401-32.95c-0.548-11.025,0.031-21.883,0.017-33c-0.005-3.827,1.969-9.945,0.416-13.416
		c-0.867-1.936-2.452-2.698-3.406-4.602c-0.792-1.579-1.518-4.115-1.342-5.982"/>
	<path id="humboldt" fill="none" d="M98.657,156.343c0.896,1.835,1.957,3.282,3.01,4.989c1.034,1.675,1.634,3.377,3.259,4.749
		c3.866,3.262,7.436-1.714,12-0.674c3.012,0.686,2.536,1.01,5.408-0.405c2.152-1.061,4.129-2.254,6.607-1.943
		c2.962,4.953,3.347,12.93,2.465,18.683c-0.474,3.094-1.453,5.798,0.926,8.518c2.04,2.333,5.443,3.93,8.276,3.134
		c2.45,3.276-7.959,6.399-10.359,8.858c-2.528,2.59-1.686,3.546-0.657,6.156c0.37,0.938,0.649,2.797,1.062,3.596
		c1.596,3.084,2.22,3.1,2.418,7.019c0.202,4.009,0.858,7.967,0.259,11.979c-0.75,5.021-0.252,9.447,0,14.667
		c0.521,10.79,0.375,20.761-0.259,31.41c-0.308,5.153-1.65,9.629-0.314,14.743c0.803,3.075,2.004,2.749-1.358,3.564
		c-3.034,0.736-7.32-0.094-10.402-0.4c-4.475-0.444-9.779-0.353-14.23-0.279c-3.622,0.059-9.656,2.424-12.687-0.794
		c-0.878-0.933-0.561-2.15-1.159-2.834c-0.744-0.851-2-0.812-2.692-1.643c-1.308-1.571-1.968-4.812-2.566-6.773
		c-1.426-4.678-3.636-6.411-6.425-10.567c-0.562-0.838-0.617-2.172-1.169-2.831c-0.931-1.11-1.744-0.946-2.812-1.854
		c-1.544-1.312-2.437-3.326-3.836-5.165c-2.874-3.777-2.082-4.021-2.091-8.575c-0.004-2.284-2.875-7.953-1.941-9.683
		c0.586-1.084,2.874-1.094,3.867-1.984c1.153-1.034,1.451-2.542,2.317-3.75c0.339-0.472,1.68-0.697,1.856-1.151
		c0.329-0.849-0.506-1.727-0.357-2.174c0.632-1.9,0.243-3.1,3.208-2.641c0.877-1.886-0.398-2.499-0.542-4.026
		c-0.18-1.915,0.326-3.451,0.843-5.157c0.08,0.513,0.362,0.999,0.472,1.517c3.548,1.813,4.786-4.592,7.917-5.543
		c-7.346,0.906-2.413-10.596-4.013-14.409c5.55-3.564-1.918-16.697-5.001-19.991c2.042-2.376,1.717-6.705,5.657-6.059
		c0.383-2.171-1.427-2.783-1.633-4.599c-0.21-1.847,1.099-3.335,1.742-4.959c1.147-0.027,2.248,0.171,3.217,0.566
		c0.775-3.888-2.486-5.679-1.184-9.2c0.761-2.058,1.359-2.189,1.242-4.424c-0.173-3.327-2.02-6.909,2.762-5.748
		C94.442,150.903,97.474,153.921,98.657,156.343z"/>
	<path id="nevada_1_" fill="none" d="M305.5,344.333c-6.392-0.958-3.454,10.096-10.758,6.017c-1.08-0.603-0.424-2.268-2.509-1.618
		c-1.628,0.508-0.885,2.756-1.808,3.533c-1.54,1.297-5.285,1.322-7.184,2.142c-3.884,1.677-10.147,3.581-13.147,6.518
		c-2.721,2.665-0.001,3.869-1.327,6.341c-1.291,2.407-4.799,0.52-6.274,3.083c-1.229,2.137,0.153,5.225,0.349,7.308
		c0.162,1.732-0.682,7.075,0.31,8.357c1.049,1.358,1.884-0.03,3.016,0.302c1.093,0.32,2.029,1.14,3.093,1.591
		c2.64,1.118,4.356,1.829,7.174,0.351c5.046-2.646,5.064-8.71,8.409-11.859c0.909-0.855,2.553-0.666,3.656-1.401
		c1.312-0.875,1.491-1.865,2.417-3.008c1.535-1.894,3.255-3.309,5.168-4.741c2.673-2.001,3.132-5.647,6.066-6.601
		c2.913-0.947,7.893-0.469,11.017-0.315c1.757,0.087,3.496,0.323,5.333,0.332c2.562,0.013,2.918,0.525,4.91,1.416
		c3.942,1.764,4.711-0.986,8.707-0.699c-0.453,5.986,7.544,3.898,11.333,3.566c0.21-3.469-0.446-7.086-0.617-10.616
		c-0.155-3.217-1.747-6.646-1.059-9.625c-2.363,1.975-2.501,2.781-5.941,2.958c-2.945,0.152-5.848,0.198-8.667,0.333
		c-2.694,0.13-6.288-0.65-8.74,0.243c-2.709,0.987-3.437,4.191-6.869,3.365c-0.977-1.615-0.671-3.703-1.976-5.024
		c-0.799-0.81-4.143-1.793-4.75-1.584"/>
	<path id="yuba" fill="none" d="M237.5,368.333c2.749-3.802,0.216-11.106,7.333-11c2.705,0.04,4.525,3.402,6.925,2.925
		c1.266-0.252,1.715-1.702,2.5-2.518c0.983-1.021,1.599-1.554,2.575-2.398c1.417-1.224,1.504-0.667,2.408-2.269
		c0.529-0.938,0.426-2.342,0.991-3.334c1.31-2.302,4.039-3.32,5.6-5.389c3.167-4.196,6.228-8.484,11.635-10.3
		c-1.35,2.382-0.357,4.63,0.441,6.867c1.348,3.774,0.184,2.734-1.333,6.158c-2.113,4.771,2.392,10.706-3.409,12.942
		c-2.651,1.022-4.814,0.183-5.341,3.657c-0.204,1.346,1.577,1.241,0.683,2.926c-0.573,1.079-2.202,0.946-3.009,1.399
		c-5.111,2.87-2.261,8.881-1.999,14.001c0.095,1.863-0.094,3.547-0.392,5.275c-1.876,0.523-3.205,1.32-4.692,2.634
		c-0.656,0.58-0.741,1.798-1.493,2.181c-0.947,0.481-2.07-0.108-3.016,0.169c-3.026,0.886-6.083,2.89-8.324,5.689
		c-0.463-0.817-1.919-2.61-2.017-3.607c-0.221-2.251,2.364-3.331,1.95-5.024c-0.149-0.609-2.406-1.665-2.942-2.725
		c-0.832-1.645,0.483-3.316-1.683-4.317c-0.155-2.647,0.405-5.66-0.642-8.025c-1.207-2.726-2.539-3.459-2.417-6.917"/>
	<path id="placer" fill="none" d="M251.167,418.333c-1.547-4.163-1.157-11.592-0.616-15.951c2.79-0.419,5.325-0.515,6.282-3.051
		c1.101-2.92-1.773-5.023-1.689-6.982c0.148-3.438,4.251-3.159,6.366-4.342c2.981-1.667,2.64-2.955,6.259-0.925
		c1.852,1.039,4.159,3.691,6.75,2.6c1.457-0.614,3.723-4.05,4.974-5.341c1.837-1.896,2.767-4.537,4.342-6.268
		c1.499-1.647,3.878-2.072,5.425-3.65c0.691-0.705,1.092-1.936,1.827-2.758c0.787-0.88,2.366-1.548,3.016-2.415
		c1.193-1.593,0.806-3.318,2.15-4.834c0.881-0.993,3.618-2.256,4.85-3.093c1.379-0.937,2.477-2.883,3.789-0.047
		c3.139,1.446,4.304-2.354,6.627-3.266c1.315-0.517,5.832-0.523,7.241,0.398c2.822,1.846,1.851,4.374,6.083,3.673
		c2.801-0.464,5.053-2.911,7.607-3.033c-0.473,2.332-1.024,4.238-0.898,6.9c1.521,0.291,3.257-0.022,4.531-0.566
		c2.467,3.907-11.248,7.903-7.523,13.892c3.183,0.102,5.101,0.222,5.607,3.725c0.415,2.862-0.536,5.168-3,5.999
		c-2.377,0.801-5.375-0.527-7.666-0.666c-2.818-0.17-5.605,0.024-7.991,1.417c-2.232,1.304-3.505,3.365-6.009,3.917
		c-2.329,0.513-5.952,0.232-8.333-0.001c-2.358-0.232-5.514-1.541-8.001-1.007c-3.375,0.725-2.873,3.794-4.91,5.438
		c-2.026,1.638-5.233,0.48-7.374,0.286c0.763,4.485-5.394,5.301-7.298,8.35c-1.882,3.012,0.706,10.396-3.769,11.923
		c-1.142,0.39-1.172-0.734-2.058-0.581c-0.734,0.127-2.446,1.429-2.941,1.289c-1.742-0.493-1.313-3.602-3.749-3.128
		c0.12-0.023-1.297,1.907-1.587,2.097c-0.687,0.449-1.876,0.965-2.631,1.018c-2.218,0.156-3.889-0.926-6.018-1.017"/>
	<path id="yolo" fill="none" d="M191.167,395.333c0,2.211-0.712,5.964,0.575,7.758c0.669,0.934,2.094,0.71,2.85,1.484
		c0.923,0.944,1.032,1.919,1.576,3.09c1.73,3.723,4.049,6.967,5.998,10.669c1.12,2.129,1.345,4.35,3.001,6.332
		c1.687,2.02,3.871,2.529,5.417,4.584c1.25,1.663,1.864,4.236,3.24,5.759c2.093,2.315,2.729,1.551,5.668,0.575
		c2.39-0.794,4.525-2.24,7.008-2.584c2.616-0.362,5.409,1.028,7.95,0.367c2.74,11.365,3.178,23.989,3.101,35.583
		c5.895,0.782,7.725-9.404,5.992-13.233c2.287,0.305,2.719-2.955,1.974-4.733c-0.372-0.89-2.081-1.024-2.283-1.717
		c-0.565-1.933,0.765-1.233,0.849-2.352c0.279-3.729-2.792-6.262-1.934-10.6c0.91-4.597,1.004-6.292-1.574-10.408
		c-1.081-1.727-2.191-3.383-1.757-5.591c0.436-2.217,2.514-3.226,1.958-5.926c-3.853-2.155-5.298,5.267-7.191,7.225
		c-1.633-3.438-0.938-7.186-0.093-10.625c0.422-1.718,1.031-3.111,1.684-4.649c0.431-1.014,2.196-3.348,1.925-4.424
		c-0.456-1.813-2.248-1.617-3.699-1.275c-0.799,0.188-0.443,1.844-2.25,1.707c-0.658-0.05-0.988-1.188-1.56-1.432
		c-3.017-1.281-7.314-1.137-11.032-0.976c-0.478-3.266-4.548-2.275-7.058-2.275c-3.229,0-6.118-0.501-8.999-1.667
		c-3.223-1.306-4.691-0.793-7.742-1.073c-2.153-0.197-2.208-0.034-3.265-1.918c-0.749-1.335,0.485-3.6-1.943-3.291
		c-0.113,1.869-0.133,4.899,1.616,5.95"/>
	<path id="napa" fill="none" d="M192.5,404c2.214,1.604,3.575,2.569,4.75,4.992c1.269,2.618,1.955,3.703,3.666,5.917
		c2.737,3.543,2.95,8.704,6.493,11.847c2.026,1.797,3.469,1.415,4.676,4.317c1.056,2.539,0.951,5.439,0.016,7.834
		c-0.965,2.469-2.512,4.094-1.525,7.073c0.55,1.659,3.985,4.351,2.356,6.375c-1.183,1.47-4.864-0.599-6.346,0.395
		c-1.272,0.852-1.547,4.142-2.011,5.323c-0.36,0.917-1.069,1.211-1.147,2.26c-0.12,1.604,0.709,1.146,0.99,2.416
		c0.44,1.996,0.488,4.319,0.358,6.541c-1.143-0.566-5.36-1.67-6.04-2.526c-1.369-1.723-0.203-4.746-2.161-6.839
		c-1.799-1.922-3.182-2.303-4.056-4.926c-0.732-2.197-0.823-5.844-2.353-7.683c-1.429-1.718-3.66-1.995-4.924-4.393
		c-1.001-1.898-1.571-3.887-2.834-5.833c-2.224-3.428-5.582-6.963-6.673-10.524c0.012,0.039,0.975-0.621,1.048-0.651
		c-1.752-1.937-3.461-4.035-5.322-5.907c1.74-2.133,5.173,2.244,7.79,1.073c1.498-0.67,2.308-2.347,3.917-3.082
		c1.778-0.812,3.158-0.374,4.741-0.092c1.891,0.336,1.903,1.854,3.592,0.09c1.16-1.212,0.369-3.333,0.25-4.574
		c-0.208-2.174-1.844-8.37,0.75-9.091"/>
	<path id="sonoma" fill="none" d="M122.167,415c3.372,0.671,2.642-2.429,4.741-3.926c1.911-1.363,5.378-0.848,7.593-1.074
		c5.44-0.558,10.439-1.417,15.667-2c4.808-0.537,10.315-4.256,14.083-0.083c2.956,3.274,4.632,7.873,7,11.333
		c1.246,1.82,2.327,2.666,3.176,4.722c-0.135-0.756,0.163-1.812,0.125-2.597c4.429,0.562,2.249,6.503,3.358,8.956
		c0.809,1.789,3.041,2.147,3.941,3.652c0.41,0.686-0.189,1.986,0.227,2.756c0.682,1.257,1.934,1.38,2.774,2.259
		c1.011,1.058,2.537,2.736,3.248,4.352c0.768,1.742,0.152,3.859,1.643,5.415c1.165,1.216,2.611,0.868,3.843,2.478
		c1.359,1.772,1.471,3.693,1.972,5.701c2.262,1.464,3.35,3.258,5.21,4.798c2.406,1.992,3.565,2.838,3.016,6.542
		c-2.505,0.521-4.004-1.806-6.365-1.365c-2.073,0.387-3.7,2.924-5.918,2.763c-4.169-0.301-8.155-5.021-11.083-7.599
		c-2.487-2.19-3.65-1.274-6.602-2.065c-2.111-0.564-3.814-2.543-5.984-3.275c-4.946-1.672-10.175-1.114-14.667-3.74
		c-3.998-2.336-4.309-6.851-7.332-9.667c-3.196-2.979-6.698-4.572-9.084-8.917c-3.892-7.087-10.355-12.685-14.25-19.417"/>
	<path id="sacramento" fill="none" d="M240.5,418.667c-1.219,1.388-1.801,3.224-0.917,4.934c1.027,1.986,3.37,1.407,4.599,2.643
		c2.898,2.912-0.666,7.341-1.608,10.167c-1.078,3.231-0.001,2.393,1.583,4.674c1.504,2.167,0.216,3.008,0.734,4.992
		c0.555,2.123,1.645,1.893,1.949,4.6c0.162,1.442,0.156,4.183-1.35,4.959c-0.116-0.296-0.495-0.785-0.583-0.939
		c-1.936,4.748,2.349,9.146-2.742,13.231c-1.748,1.403-4.653,1.689-6.676,2.398c-2.594,0.909-3.258,2.873-5.297,4.275
		c3.182,0.369,9.809-1.866,12.64-3.267c2.14-1.058,2.086-2.818,3.909-4.408c1.459-1.272,3.188-1.482,4.824-3.243
		c1.331-1.433,2.57-4.141,5.284-3.031c0.838,0.343,1.096,2.021,1.726,2.273c1.293,0.518,2.028-0.023,3.25,0.067
		c4.3,0.32,9.856,1.734,10.39-4.611c1.146-0.552,2.138-0.102,2.885,0.918c-0.25-2.291,1.55-1.368,2.09-2.949
		c0.26-0.762,0.555-3.8,0.586-4.073c0.245-2.178,1.237-6.688-0.894-7.667c-0.576-2.521,1.984-4.454,1.292-7.284
		c-0.45-1.838-2.596-3.422-3.016-5.651c-0.931-4.95,0.855-10.362-3.667-12.992c-1.541-0.896-0.22-1.068-2.408-0.765
		c-1.275,0.177-1.357,1.706-3.268,1.432c-1.768-0.253-3.109-3.78-4.964-3.772c-2.048,0.009-2.087,3.12-5.352,3.424
		c-2.637,0.245-5.368-0.542-8-0.674c-2.707-0.136-5.252,0.072-7.667,1.008"/>
	<path id="el_dorado" fill="none" d="M271.167,418.667c0.761-2.649,0.225-5.266,0.659-8c0.481-3.033,1.889-3.506,3.941-5.424
		c1.775-1.659,2.28-3.717,3.725-5.258c1.86-1.985,4.107-1.673,6.675-2.318c3.175-0.799,2.659-2.411,4.984-4.082
		c1.769-1.271,5.379-1.231,7.091-1.324c2.632-0.142,5.32,0.308,7.666,0.666c3.972,0.606,4.096-0.656,7.193-2.683
		c3.872-2.532,12.599-2.453,17.009-0.852c0.872,2.99-0.296,5.763,3.798,5.355c2.424-0.241,5.255-2.358,7.927-2.08
		c4.102,0.428,9.435,4.442,8.249,8.999c-1.103,4.235-4.856,8.833-7.316,12.316c-2.988,4.231-2.861,10.14-5.675,13.942
		c-3.533,4.774-1.569-4.549-5.533-2.534c0.089,1.188,0.309,2.327,0.226,3.56c-1.728,0.54-3.337,1.54-5.024,1.973
		c-0.97,0.25-1.661-0.645-2.683-0.014c-0.755,0.467-0.628,1.604-1.244,2.089c-2.679,2.104-7.832,3.825-11.683,2.758
		c-3.799-1.053-6.374-4.032-10.317-4.422c-2.816-0.279-10.21,2.686-11.39,0.057c-2.283-0.31-10.142,3.92-11.276,5.643
		c-3.27-1.246-3.339-7.139-3.666-10.033c-0.124-1.095,0.164-2.024-0.334-2.999c-0.607-1.185-1.648-0.515-2.274-1.318
		c-1.37-1.76-0.788-3.088-0.725-5.349"/>
	<path id="amador" fill="none" d="M278.833,463.667c-2.181-0.97-0.223-4.592-0.592-6.592c-0.458-2.479-2.045-2.236-1.325-5.325
		c0.587-2.521,1.906-3.877,0.575-6.74c-1.508-3.242-1.977-2.354-0.266-5.959c0.763,0.06,1.206-0.408,1.884-0.441
		c-0.307-3.933,2.487-3.503,4.975-5.691c3.401-2.993,2.772-1.16,6.408-0.575c4.126,0.664,13.937-6.144,14.392,1.941
		c3.062-0.362,5.013,1.789,8.032,1.132c1.241-0.271,2.359-1.254,3.577-1.44c1.727-0.265,2.851,0.516,4.674-0.383
		c2.379-1.17,4.303-3.321,6.733-3.841c4.248-0.91,4.563-0.71,2.984-4.702c0.419-0.044,0.825,0.011,1.232,0
		c-0.014,1.085,0.524,1.896,1.05,2.65c0.901-0.511,1.612-0.218,2.616-0.317c0.79,1.93-0.472,4.923-0.382,7.05
		c0.042,0.981,1.107,0.615,0.521,2.316c-0.127,0.369-1.987,1.894-2.348,2.326c-0.417,0.5,0.212,1.39-0.312,1.95
		c-0.45,0.48-1.39,0.296-1.781,0.633c-0.707,0.608-1.814,1.543-2.634,2.007c-2.405,1.363-4.657,2.634-7.032,3.917
		c-4.323,2.336-10.332,2.833-13.641,6.5c-1.603,1.777-2.455,3.568-4.351,5.168c-2.473,2.087-3.353,1.318-6.324,2.083
		c-3.526,0.909-6.006,4.87-9.751,5.916c-2.293,0.641-3.61,0.556-5.509-0.658c-1.561-0.998-1.911-3.518-4.449-2.717
		c0.214-0.277,0.237-0.579,0.375-0.875"/>
	<path id="calaveras" fill="none" d="M282.167,469c-0.552-0.846,1.021,2.19,1.425,2.926c0.908,1.654,1.661,1.7,2.584,2.732
		c2.452,2.741,1.528,5.803,3.066,8.934c1.21,2.462,4.253,4.608,5.582,7.093c1.237,2.313,3.835,5.055,4.735,7.592
		c1.853,0.207,2.475-1.471,3.942-2.301c1.104-0.625,2.53-0.391,3.648-1.383c2.352-2.086,0.92-3.999,2.286-6.608
		c1.036-1.979,2.751-3.635,3.823-5.559c1.06-1.898,1.296-4.932,2.31-6.691c0.563-0.98,1.936-1.474,2.616-2.327
		c1.13-1.413,1.164-2.596,1.984-4.09c1.193-2.175,3.003-3.26,4.616-4.976c1.718-1.828,1.661-4.216,2.626-6.432
		c0.869-1.993,2.808-3.136,3.416-5.251c0.892-3.105,1.097-7.041,1.623-10.283c-2.329,0.456-3.981,1.523-5.933,3.023
		c-2.713,2.085-4.199,2.259-7.608,3.017c-2.646,0.587-3.801,1.581-5.759,3.233c-0.788,0.665-1.124,0.986-2.315,1.685
		c-0.98,0.575-2.14,0.745-3.083,1.584c-1.683,1.499-2.144,3.68-4.233,4.84c-2.375,1.32-5.251,1.224-7.701,2.483
		c-2.104,1.083-3.894,2.954-5.973,4.101c-1.928,1.064-6.858,0.723-7.343,2.992"/>
	<path id="alpine" fill="none" d="M350.5,399.333c4.432,2.654-5.731,12.568-7.741,15.584c-1.771,2.658-9.702,16.656-5.649,18.807
		c0.198,0.75,0.2,2.138,0.009,2.894c-4.981,0.938,0.905,8.789-5.235,6.768c-0.939,2.897-3.087,8.241-2.666,11.231
		c3.111,0.177,8.664,0.43,10.275,3.425c1.63-1.994,6.286-0.047,8.617,0.343c-0.009,1.998,1.503,2.686,3.333,2.341
		c1.423,5.579,9.569,2.411,11.058-1.374c0.833-2.119,0.999-5.498,0.09-7.434c-0.801-1.708-4.175-3.974-2.522-6.349
		c1.396-2.007,5.683-0.15,7.091-0.151c2.04-0.001,1.12,0.83,2.757-0.825c0.825-0.834,1.464-3.152,1.583-4.258
		c0.544-5.067-4.542-8.38-5.333-13c-0.241-1.409-0.277-3.889,0.066-5.259c0.313-1.252,2.214-2.662,1.958-4.065
		c-0.243-1.336-4.345-5.104-5.358-6.359c-1.796-2.224-4.365-3.317-6.407-5.226c-1.893-1.769-3.335-5.558-5.926-6.425"/>
	<path id="solano" fill="none" d="M212.5,435.333c0.187,2.94-1.423,4.508-2.91,6.758c-1.018,1.541-2.076,0.657-1.349,3.167
		c0.26,0.896,2.01,1.932,2.517,2.816c1.537,2.682,2.123,5.935-1.35,5.689c-1.266-0.089-1.732-2.255-3.667-1.188
		c-1.23,0.679-1.435,2.426-1.3,3.699c-3.149,0.801-0.142,2.779-0.268,4.725c-0.158,2.432-2.978,3.13-2.283,5.942
		c0.845,0.393,1.411,1.685,2.017,1.982c1.287,0.631,2.102-0.146,3.592,0.075c2.592,0.386,4.286,1.88,7.259,1.259
		c2.512-0.523,4.111-2.108,6.999-1.176c2.599,0.84,3.253,2.907,6.075,3.25c2.091,0.254,5.728-0.308,7.341-1.752
		c2.103-1.881,1.194-4.863,1.326-7.582c0.266-5.499,0.709-10.564-0.333-16c-0.561-2.923-0.388-5.854-0.667-9
		c-0.227-2.562,0.332-2.548-2-3.592c-1.281-0.574-3.24-0.333-4.667-0.408c-3.392-0.178-6.043-0.562-8.935,1.083
		c-1.623,0.923-5.775,4.266-6.456,0.636c-0.539-0.018-1.13,0.047-1.61,0.282"/>
	<path id="tuolumne" fill="none" d="M301.833,498.667c1.911-0.239,4.963-2.187,5.917-4.009c1.123-2.147,0.077-4.285,1.326-6.667
		c1.125-2.147,3.398-3.876,4.684-5.983c1.424-2.336,1.964-5.387,3.334-7.432c1.37-2.044,3.158-3.254,4.407-5.576
		c1.321-2.457,3.985-3.247,5.258-5.334c1.397-2.292-0.522-5.225,1.4-7.25c2.315-2.438,5.105-1.022,7.351-0.148
		c2.721,1.06,5.584,1.068,8.399,1.968c3.021,0.965,5.065,2.676,7.674,4.683c3.476,2.675,4.853,1.253,8.674-0.16
		c2.42-0.895,7.562-1.976,7.625,2.193c5.148,0.282,5.681,7.406,7.293,10.724c0.86,1.77,2.78,3.381,4.25,4.75
		c1.999,1.862,2.496,2.97,3.731,5.234c2.449,4.49,5.576,8.485,7.009,13.341c0.72,2.438,6.149,11.193,2.417,13.081
		c-0.424,0.215-1.465,0.118-2.034-0.13c-0.309-1.047-0.446-2.077-0.432-3.235c-1.742-0.276-5.369,0.015-6.967-0.7
		c-1.667-0.746-1.696-4.409-4.928-2.132c-0.815-3.736-11-4.491-14.407-4.201c-2.726,0.232-2.733,1.771-5.39,2.909
		c-1.995,0.856-5.537,0.565-7.668,0.667c-2.865,0.138-5.289,0.146-7.934-0.843c-2.22-0.83-4.699-2.61-7.325-2.083
		c-2.616,0.525-3.016,2.667-5.667,3.333c-3.633,0.914-4.006-0.378-6.333,3c-0.896,1.301-1.501,3.315-2.324,4.343
		c-1.048,1.311-2.827,1.693-3.426,3.291c-2.696-2.977-4.5-8.139-9.525-8.356c-1.267-2.389-9.631-7.604-6.058-9.943"/>
	<path id="marin" fill="none" d="M157.167,455.333c0.926,2.278-0.568,4.513-0.082,6.749c0.501,2.302,2.225,2.728,1.507,4.992
		c-0.597,1.882-3.025,2.747-2.431,5.268c0.331,1.406,3.767,3.391,0.722,4.041c-0.048,2.052-3.949,8.424-0.124,9.05
		c2.722,0.445,2.325-6.433,7.75-3.848c0.988,0.471,2.404,2.125,3.074,3c1.254,1.638,0.807,2.766,1.659,4.341
		c0.729,1.348,5.383,5.934,6.535,6.023c0.319-1.016,0.753-1.826,0.774-2.898c0.499-0.107,1.067-0.1,1.566,0
		c0.189,3.727-0.249,5.222,2.967,7.366c1.174,0.784,5.161,4.441,6.368,4.532c0.428-2.148-1.839-4.609-1.325-6.797
		c0.93-3.962,1.662-0.043,4.376-0.847c6.623-1.957-2.384-17.232-2.669-20.305c-0.246-2.647,0.59-5.217-0.91-7.424
		c0.022,0.033-2.363-1.747-2.498-1.835c-1.054-0.692-1.864-1.18-2.943-1.732c-0.909-0.465-2.407-0.59-2.99-1.316
		c-0.852-1.062,0.149-2.68-1.076-3.608c-1.152-0.874-3.999,0.12-6.175-0.826c-2.215-0.963-4.231-2.215-6.483-2.834
		c-2.284-0.629-4.682-0.881-6.852-1.382c-0.126,0.479-0.56,0.688-0.741,0.958"/>
	<path id="contra_costa" fill="none" d="M194.5,492.333c-2.426-0.108-1.7-3.517-1.617-5.283c1.339-0.272,2.828-0.527,4.233-0.434
		c0.042-1.48-1.371-2.297-1.291-3.608c0.169-2.767,1.435-1.293,2.774-2.909c1.238-1.493,1.983-6.943,1.609-8.709
		c2.552-1.075,5.014,0.725,7.625,0.685c3.021-0.046,4.318,0.274,7.074,1.177c4.693,1.536,10.494,2.885,15.593,2.766
		c2.439-0.057,4.39-2.446,6.667-2.351c1.743,0.074,1.672,0.896,2.675,1.658c-0.105-0.08,2.297,2.183,2.241,2.094
		c2.72,4.363,0.465,10.851,0.158,15.582c-0.202,3.111,0.837,5.798,0.616,8.883c-0.553-0.715-1.499-1.185-2.014-1.923
		c-1.105,0.815-1.154,2.213-1.06,3.656c-2.561,0.055-3.352-0.266-5.69,0.959c-1.961,1.025-3.511,2.782-5.667,3.35
		c-4.941,1.3-8.329-1.483-9.641-5.542c-1.43,0.742-5.594-0.287-7.293-1.042c-1.851-0.823-2.635-3.377-4.408-4.592
		c-1.074-0.735-2.19-0.889-3.167-1.425c-0.875-0.48-1.393-1.681-2.4-2.007c-1.22-0.396-2.68,0.528-4.032,0.365
		C196.641,493.581,195.35,492.396,194.5,492.333"/>
	<path id="san_joaquin" fill="none" d="M238.167,474c4.45-0.623,0.721,5.888,4.95,5.05c0.157,8.666,0.9,17.213,0.384,25.95
		c-0.133,2.256-0.942,4.048-0.749,6.074c0.234,2.455,2.156,2.829,2.766,4.575c0.752,2.15,1.039,10.66-0.9,11.35
		c6.258,2.209,9.134-3.387,13.625-6.9c4.572-3.575,7.173-8.366,12.183-11.523c2.003-1.264,4.289-2.808,6.407-3.909
		c2.333-1.214,4.907-0.665,7.333-1.667c4.118-1.701,3.801-10.962,4.352-14.983c0.772-5.635,2.222-9.623-2.332-13.685
		c-3.831-3.417-4.082-7.646-6.769-11.574c-1.483-2.168-3.293-3.259-5.918-3.09c-3.512,0.227-3.411,2.301-5.907,3.757
		c-4.69,2.735-10.585-2.439-14.84-0.506c-1.653,0.751-1.818,2.728-3.16,3.757c-1.119,0.858-2.824,1.611-4.017,2.399
		c-1.108,0.731-2.629,2.152-4.333,2.926c-1.215,0.551-3.6,0.845-3.074,1.667"/>
	<path id="santa_clara" fill="none" d="M209.167,537.666c0.857-0.11,1.813,0.163,2.608,0.391c0.586,1.157,5.911-0.564,7.299-1.123
		c1.146-0.461,3.073-1.987,4.433-2.686c1.179-0.604,3.164-1.201,4.336-1.972c3.25-2.138,2.474-4.337,7.324-4.276
		c3.279,0.041,6.894,0.981,9.952,1.616c0.358-3.692,3.433-0.274,4.067,1.365c0.817,2.115,0.952,4.709,1.389,6.943
		c0.5,2.562,0.653,3.861-1,6.148c-1.149,1.589-3.772,2.922-4.082,4.918c-0.729,4.69,7.21,6.92,10.267,7.748
		c6.696,1.813,6.065,5.544,5.741,11.593c-0.049,0.914,0.883,4.658,0.69,5.009c-0.827,1.501-2.937,0.277-3.749,2.268
		c-1.997-0.063-3.431-1.194-5.292-0.35c-1.191,0.542-2.17,2.074-3.317,2.759c-0.864,0.515-3.084,1.872-4.066,2.24
		c-1.805,0.678-3.761-0.026-5.2,1.373c-0.251-7.457-6.593-18.156-12.799-22.898c-4.021-3.073-8.602-3.998-13.285-4.084
		c-5.266-0.097-6.167-4.201-8.308-8.657c-0.933-1.942-2.387-3.259-0.332-4.981c1.853-1.554,4.5,0.265,2.375-3.294
		c0.575,0.097,1.042-0.329,1.282-0.383"/>
	<path id="alameda" fill="none" d="M198.167,494c1.226,0.165,3.1,1.527,3.724,1.608c1.656,0.216,2.366-1.023,4.218-0.2
		c1.708,0.76,4.12,4.322,4.783,6.208c3.247,0.48,3.365-0.094,6.193,1.799c2.136,1.43,3.683,1.819,6.416,1.917
		c5.563,0.201,10.307-1.15,15.324-2.01c3.721-0.639,2.809,0.008,3.75,3.343c0.76,2.692,1.856,3.966,1.909,6.667
		c0.055,2.865,0.314,4.769,0.683,7.334c0.181,1.262,1.102,6.841,0.674,7.672c0.048,0.211,0.029,0.415-0.056,0.611
		c-2.359,0.753-6.028,0.662-8.617,0.382c-2.872-0.31-5.106-2.294-7.683-0.065c-2.394,2.071-2.297,3.49-5.325,4.983
		c-2.279,1.124-4.519,2.399-6.649,3.716c-1.379-1.416-2.223-3.333-3.75-4.55c-1.537-1.225-3.641-1.241-5.008-2.66
		c-3.207-3.329-2.183-8.707-4.501-12.173c-1.167-1.744-2.654-1.773-2.757-4.251c-0.049-1.183,1.082-1.743,1.014-3.008
		c-0.05-0.944-0.87-1.741-1.006-2.659c-0.616-4.131-1.609-6.915-1.725-11.275c-1.749-0.655-2.512-2.698-0.942-3.725"/>
	<path id="san_mateo" fill="none" d="M191.833,502.667c2.628,0.017,3.055-0.415,4.008,1.674c0.317,0.695-0.468,3.667-0.757,4.316
		c-0.641,1.442-1.763,2.206-2.25,3.677c-0.603,1.822-0.154,2.999-1.367,4.664c2.892,2.488,6.528,4.413,7.083,8.951
		c2.492,0.312,3.776-1.032,5.292,1.042c1.157,1.582-0.298,4.623,2.609,5.058c-0.315,1.964,6.847,9.462,1.44,8.341
		c-1.455,2.846,1.292,6.262,0.941,9.275c-0.519,4.457-3.939,3.052-7.332,3c-2.008-0.03-2.832,0.44-4.35,0.984
		c-0.339,0.12,0.333,2.604-1.341,1.381c-0.752-0.55-0.101-1.95-0.31-2.698c-0.583-2.087-3.853-6.508-1.058-7.393
		c0.77-3.221-4.088-6.663-4.958-9.941c-0.27-1.02,0.086-2.023-0.326-2.99c-0.439-1.031-1.534-1.094-1.925-2.075
		c-0.61-1.531-0.931-4.647-1.083-6.25c-0.305-3.19,2.209-23.039,6.017-21.017"/>
	<path id="stanislaus" fill="none" d="M245.167,527.667c0.982-0.295,6.936-0.326,7.934,0.401c1.4,1.02,1.907,5.629,2.14,7.191
		c0.382,2.569,0.135,4.938-0.49,7.314c-0.729,2.773-0.59,4.633-0.533,7.709c1.494,0.216,2.811-0.158,4.234-0.234
		c0.03,2.311,1.302,1.319,2.642,1.877c0.748,0.312,2.537,0.781,3.684,1.131c0.057,0.711,0.463,1.012,0.374,1.826
		c2.707-3.197,7.318-6.51,10.701-9.143c3.977-3.097,7.861-4.067,7.316-9.408c-0.255-2.498-0.705-3.466,1.073-5.258
		c0.606-0.61,1.888-0.695,2.602-1.325c0.815-0.72,1.436-2.424,1.965-2.774c1.566-1.033,4.059-0.869,5.766-1.567
		c1.758-0.72,3.421-1.959,5.201-2.357c1.421,2.783,4.508-1.811,6.05-2.464c2.181-0.925,5.271-0.875,7.691-1.902
		c6.819-2.892,0.02-5.503-2.782-8.592c-1.776-1.958-1.564-3.54-3.642-4.498c-0.951-0.438-1.723,0.318-2.933-0.585
		c-0.609-0.455-1.2-2.016-1.66-2.676c-2.578-3.694-5.878-6.24-8.584-9.749c-2.572-3.335-2.207-6.43-5.999-8.882
		c-0.788,1.464-0.897,3.23-0.807,4.924c-0.297,0.074-0.506-0.183-0.634-0.168c0.109,1.033,1.039,2.024,1.042,2.859
		c0.006,1.54-0.898,2.307-1.091,3.684c-0.267,1.903,1.791,5.673,0.414,7.098c-0.94,0.974-5.692,1.525-7.258,2.311
		c-2.439,1.222-4.359,3.027-6.667,4.333c-2.072,1.172-4.133,1.429-6.074,2.991c-1.712,1.379-3.121,3.331-4.757,4.852
		c-3.314,3.081-5.966,6.54-9.917,8.667c-1.635,0.88-6.325,1.535-6.667,2.083"/>
	<path id="merced" fill="none" d="M262.5,556.333c3.003,1.665,16.274-12.363,18.667-14.926c3.077-3.297,0.854-8.64,3.019-10.39
		c1.344-1.086,3.524-1.349,5.048-2.27c1.868-1.129,3.457-2.649,5.266-3.781c2.607,2.555,4.554-3.475,6.392-1.357
		c1.756,0.35,3.163-0.729,4.292-1.928c0.485-0.515-0.371-1.515,0.56-2.106c1.111-0.707,1.559,0.121,2.174,0.008
		c1.528-0.281,2.659-0.181,4.509-1c1.611-0.714,3.106-1.336,4.656-1.866c1.928,4.291,5.855,7.814,8.011,12.283
		c1.99,4.126,4.127,8.43,6.726,12.082c1.55,2.18,9.707,7.556,7.365,11.267c-0.155,0.248-5.139,2.562-6.016,2.926
		c-0.976,0.403-2.086,0.148-3.342,0.659c-1.146,0.468-1.919,1.471-2.909,1.813c-2.436,0.844-4.933-0.654-7.342,0.327
		c-2.551,1.039-2.832,3.31-4.648,5.018c-3.381,3.177-7.938,4.049-11.09,7.909c-2.735,3.35-4.748,7.415-8.084,10.583
		c-3.638,3.453-7.102,6.639-9.85,10.767c-2.566,3.854-6.193,9.315-10.091,11.856c0.144-2.213,1.08-5.108,0.7-7.215
		c-0.377-2.088-1.97-2.907-3.099-4.568c-2.255-3.315-4.309-7.277-5.317-11.091c-1.366-5.16-0.756-8.599,0.066-13.677
		c0.444-2.746,0.012-3.704-0.899-6.082c-0.716-1.867-1.326-4.226-3.758-4.241"/>
	<path id="santa_cruz" fill="none" d="M195.833,554c2.401,0.181,4.241-2.177,6.684-2.666c2.375-0.476,5.459,1.023,6.649-1.7
		c2.465,1.869,4.207,5.515,7.668,5.391c2.63-0.095,2.05-1.984,4.998-0.023c1.459,0.971,1.115,3.599,3.6,1.699
		c0.006,0.387,0.141,0.859,0.126,1.242c5.438,2.761,9.598,5.713,12.851,11.409c1.239,2.169,3.006,5.892,3.432,8.308
		c1.153,6.537-5.363,1.211-6.064,4.951c-0.286,0.107-0.749,0.166-0.942,0.424c-0.886-1.432-2.222-2.771-4.008-1.511
		c-0.187-0.265-0.221-0.541-0.384-0.798c-2.771,0.013-0.919,3.468-1.668,5.225c-3.387,0.254-3.372-5.363-4.366-7.615
		c-1.524-3.45-4.364-4.068-7.901-3.586c-4.143,0.563-5.66,1.028-8.675-2.399c-1.656-1.882-3.842-6.226-6.942-4.726
		c-0.793-3.991,1.109-4.163-2.317-6.697c-0.947-0.7-2.14-1.632-2.749-2.918c-0.636-1.343,0.663-2.198-0.274-3.591
		c0.485-0.503,0.933-0.457,1.615-0.417"/>
	<path id="mariposa" fill="none" d="M317.167,516.667c0.002-2.089,2.609-2.542,3.667-4.333c1.133-1.919,0.998-3.751,2.75-5.584
		c2.409-2.521,2.933-1.38,5.917-1.49c3.776-0.14,2.971-2.38,5.39-4.201c5.444-0.279,8.615,4.589,14.276,4.942
		c2.229,0.139,5.661,0.096,7.667-0.651c2.573-0.958,3.838-3.406,6.675-3.689c0.901-0.09,2.1,0.669,3.333,0.607
		c1.3-0.064,2.366-1.252,3.991-0.933c1.089,0.214,5.429,2.207,6.019,2.999c1.836,2.468-5.371,7.565-7.683,8.925
		c-0.498,0.293-1.621-0.344-1.943-0.549c-0.011,1.778-0.896,3.255-1.016,4.882c5.632,1.697,0.367,4.309-1.984,5.467
		c0.184,1.049-0.346,1.95-0.447,2.886c-2.304,0.719-3.429,2.026-4.611,3.389c-0.629,0.724-0.616,1.786-1.748,2.593
		c-0.86,0.613-2.187,0.256-2.936,0.718c-2.868,1.771-0.926,2.75-1.958,5.022c-0.899,1.977-3.471,1.814-3.082,4.61
		c-2.478,0.161-1,1.794-1.576,2.39c-0.929,0.961-2.035,1.43-3.106,2.318c-1.534,1.271-3.814,5.1-5.544,5.298
		c0.244-4.05-2.065-6.765-5.132-9.199c-3.154-2.505-3.404-4.679-5.51-8.148c-1.016-1.672-1.255-3.727-2.325-5.282
		c-0.989-1.439-2.514-2.312-3.35-3.977c-1.224-2.435-2.052-7.396-5.676-7.398c-0.761-1.416-0.194-2.86,1.275-3.608"/>
	<path id="mono" fill="none" d="M367.833,418c-2.253,4.983-2.216,10.76,0.667,15.333c1.744,2.767,7.929,9.807,2.424,12.424
		c-2.463,1.171-4.386-1.549-6.765-1.749c-1.834-0.154-4.468,1.226-4.35,3.66c0.109,2.23,3.105,3.633,3.023,6.333
		c-0.047,1.548-2.995,4.937-2.614,5.691c0.62,1.23,4.781,0.324,5.932,0.642c1.769,0.487,3.505,1.936,4.768,3.241
		c1.568,1.623,2.058,3.219,2.658,5.35c0.62,2.198,1.55,3.144,2.598,5.059c1.678,3.064,2.945,6.003,6.076,8.268
		c1.781,1.289,4.146,0.424,5.591,1.466c2.461,1.776-0.205,3.606-1.616,4.34c-0.323,1.852,0.997,2.226,2.01,3.52
		c1.234,1.579,1.984,2.461,2.601,4.425c1.093,3.488,1.813,6.83,2.058,10.608c0.454,0.119,0.764,0.331,1.218,0.449
		c0.366,1.839-0.376,3.408-0.226,5.226c3.49-0.062,0.643,4.178,0.624,5.717c-0.042,3.565,2.562,2.007,5.609,2.615
		c0.229-1.842-1.3-4.497,0.966-5.231c0.972,2.453,3.712,2.594,5.676,4.024c2.069,1.506,2.664,3.757,3.992,5.675
		c2.257,3.258,3.099,0.06,5.164,2.169c1.627,1.662,0.253,4.75,2.185,6.823c1.297,1.392-0.191,1.301,2.066,1.184
		c1.153-0.06,1.32-1.786,3.1-1.356c0.412,0.1,1.624,2.014,2.235,2.356c0.919,0.517,3.306,0.818,4.406,0.742
		c2.886-0.2,3.617-2.391,6.601-2.675c2.435-0.231,5.774,0.548,8.325,0.674c5.833,0.288,11.126-0.956,17-0.666
		c2.823,0.14,5.385,0.849,8.334,0.667c1.28-0.079,2.578-0.498,3.865-0.771c1.287-0.273,2.562-0.401,3.801,0.104L367.833,418z"/>
	<path id="san_benito" fill="none" d="M240.5,578c4.283,1.416,8.636-2.923,12.667-3.667c1.29-0.238,2.7,0.187,4-0.001
		c1.23-0.178,2.437-1.257,3.667-0.999c2.283,0.479,2.432,3.373,2.758,5.576c0.756,5.109,0.854,9.595,4.908,12.775
		c1.911,1.5,3.347,2.027,2.759,5.073c-0.273,1.418-3.309,5.185,0.851,4.633c0.884,2.161,0.59,3.608,2.075,5.592
		c0.289,0.386-0.248,1,0.218,1.44c0.447,0.422,1.537,0.337,1.765,0.576c0.811,0.853,1.281,0.962,2.074,2.251
		c1.186,1.929,1.436,3.848,2.51,5.499c0.229,0.353,1.84,1.37,2.092,1.575c0.25,0.204,0.133,1.515,0.642,1.957
		c0.465,0.404,1.578-0.289,2.032,0.035c0.494,0.351,1.831,1.907,2.227,2.023c1.402,0.409,1.894-0.551,2.667-0.432
		c0.811,0.125,4.47,1.549,5.024,2.488c1.454,2.469-1.199,3.393-0.617,6.269c0.485,2.403,2.065,3.683,2.3,6.282
		c-0.467-0.062-1.094,0.139-1.566,0.102c-0.124,2.414,1.796,6.711-0.059,6.956c-2.084,0.275-4.49-3.514-4.706-5.292
		c-3.867-1.4-9.028-4.345-11.702-6.973c-1.932-1.897-2.697-4.031-5.242-5.325c-2.05-1.043-4.299-1.285-6.332-2.427
		c-4.495-2.522-6.405-6.584-9.093-10.916c-2.686-4.329-6.402-6.461-9.916-9.408c-4.143-3.478-2.588-8.504-3.982-13.019
		c-1.315-4.254-2.373-8.388-4.394-12.314c0.25-0.404,0.658-0.751,1.042-1"/>
	<path id="monterey" fill="none" d="M230.167,580.333c1.723,0.646,3.655-0.195,5,1.366c1.01-1.301,4.066-3.536,5.765-2.058
		c0.853,0.743,1.494,6.299,1.977,7.69c0.908,2.624,1.604,4.663,2.186,7.333c0.369,1.693,0.224,5.739,1.474,6.934
		c1.101,1.053,5.203,1.066,6.849,2.15c1.818,1.197,3.475,3.173,4.507,5.177c2.36,4.585,2.423,8.211,6.984,11.647
		c2.924,2.203,6.425,3.264,9.574,4.852c1.577,0.795,2.49,1.141,3.611,2.574c0.945,1.209,0.844,3.75,1.809,4.601
		c0.761,0.672,3.437,0.934,4.509,1.481c1.337,0.687,2.363,1.975,3.674,2.667c1.275,0.675,2.843,0.745,4.007,1.659
		c0.917,0.72,1.645,2.862,2.466,3.868c1.069,0.376,2.151,0.747,3.229,1.104c0.485,2.996,2.129,6.336,4.463,8.537
		c1.307,1.231,2.241,1.776,3.917,2.097c1.623,0.312,2.926-1.599,4.057,0.93c8.905,2.299,17.982,10.915,17.562,20.672
		c-1.079-0.289-1.502-0.38-2.009-1.559c-1.292,0.154-1.604,0.144-2,1.552c-5.501,0.322-10.65-0.896-16.275-0.608
		c-5.492,0.281-10.403,1.118-15.668,0.334c-5.31-0.791-10.854,0.185-16.258-0.075c-5.292-0.253-10.492-1.366-15.724-0.249
		c-1.314,0.28-2.644,0.55-3.95,0.957c-0.794-2.346-3.225-3.307-5.069-4.634c-3.228-2.323-1.997-3.025-2.332-6.666
		c-0.272-2.964-2.081-3.666-3.333-6.074c-1.272-2.445,0.224-5.597-3.617-5.976c0.196-5.383-3.05-6.31-5.798-9.868
		c-1.296-1.678-0.983-3.835-2.16-5.506c-1.118-1.589-3.12-2.196-4.357-3.668c-3.072-3.651-3.991-6.167-4.393-10.916
		c-0.378-4.471-2.76-6.758-4.375-10.658c3.045-2.316,2.274-3.444,2.117-6.752c-0.114-2.407,0.586-4.831-0.033-7.531
		c2.294-0.13,4.372,0.279,5.858-1.809c0.934-1.312,0.073-1.3,0.426-2.243c0.109-0.291-0.474-1.027-0.267-1.599
		c0.223-0.615,1.353-0.342,1.615-0.994c0.59-1.471,1.121-0.938,0.733-2.473c-0.375-1.484-1.891-0.896-2.107-2.261
		c-0.13-0.817,1.367-5.689,1.691-6.008"/>
	<path id="madera" fill="none" d="M306.833,569.333c-1.06-2.578,0.896-5.12,2.4-6.927c3.081-3.7,2.532-0.235,5.934-0.976
		c2.266-0.491,3.647-3.76,6-4.521c2.476-0.804,5.153-0.11,7.583-0.993c1.007-0.366,1.738-1.341,2.742-1.591
		c1.344-0.334,3.042,0.433,4.357,0.022c1.747-0.542,4.344-2.71,5.733-3.934c1.718-1.512,2.761-3.484,4.226-5.14
		c1.718-1.94,4.244-3.394,5.689-5.61c1.461-2.243,2.152-5.254,4.335-7.257c2.792-2.562,4.902-1.243,4.724-6.018
		c2.841-1.368,3.553-3.555,5.185-6.132c1.984-3.134,1.621-5.495,1.809-9.208c2.842,0.127,4.813,0.237,7.2-1.8
		c2.225-1.898,2.897-3.775,6.367-3.201c0.129,3.872,6.479,2.292,8.999,3c-1.078,4.669,9.627,2.25,10.317,7.684
		c0.329,2.584-1.556,3.219-3.851,4.351c-1.875,0.925-3.709,2.85-5.693,3.307c-0.556,1.894-0.014,4.449-0.725,6.275
		c-0.701,1.799-2.672,2.57-3.666,4.334c-0.948,1.685-0.148,3.783-1.577,5.092c-1.837,1.683-4.125-0.371-6.032-0.374
		c-1.353,2.882,0.833,6.823-0.308,10.032c-1.41,3.967-3.711,2.956-6.074,5.242c-1.19,1.151-1.063,2.715-1.742,4.332
		c-0.316,0.758-1.839,0.957-1.966,1.668c-0.142,0.798,0.888,1.177,0.958,1.741c0.381,3.064,0.296,6.396-0.983,9.542
		c-2.269,0.316-4.617,0.63-6.358,2.31c-0.671,0.646-1.266,2.357-1.651,2.674c-1.392,1.143-2.274,0.341-3.598,1.061
		c-2.094,1.138-2.922,3.762-4.985,5.104c-2.048,1.335-4.359,1.257-6.282,3.311c-0.849,0.903-0.769,1.802-2.083,2.85
		c-1.063,0.848-2.064,1.307-3.316,1.677c-2.563,0.758-4.763,0.452-7.259,1.814c-2.775,1.515-2.691,1.244-5.758,1.244
		c-1.25-0.001-1.675,0.589-2.975,0.431c-1.28-0.155-2.272-0.977-3.676-1.082c-4.165-0.312-4.745,0.165-5.083-4.583
		c-0.027-0.381-0.914-0.909-0.941-1.407c-0.052-0.941,1.274-1.364,1.038-2.343c-0.332-1.372-1.657-2.277-2.754-3.26
		c-3.96-3.543-7.277-9.088-6.926-14.74"/>
	<path id="fresno" fill="none" d="M306.117,568.817c-5.375,5.993-10.75,11.988-16.126,17.982c-3.53,3.938-7.06,7.873-10.59,11.811
		c-1.025,1.144-2.55,2.367-3.321,3.698c-2.387,4.12,1.149,2.562,4.177,3.934c1.694,0.768,3.444,3.419,4.502,4.831
		c1.312,1.752,3.003,2.573,4.408,4.26c0.511,0.612,0.745,2.769,1.05,3.024c1.199,1.007,2.85,0.45,4.283,0.642
		c5.061,0.671,5.849,5.267,6.332,9.668c0.205,1.873,1.14,4.587,0.935,6.592c-0.09,0.878-1.091,1.984-1.273,3.08
		c-0.169,1.019,0.799,1.474,0.098,3.086c-0.955,2.194-2.363,0.854-2.425,3.908c-0.054,2.674,1.214,3.136,3.019,4.574
		c1.311,1.046,3.029,2.444,4.64,2.841c2.366,0.581,3.881-0.477,6.106,0.827c0.552,0.322,0.54,1.407,1.145,1.84
		c0.776,0.557,2.157,0.744,2.765,1.242c1.337,1.097,1.774,2.588,3.059,3.608c3.21,2.555,5.667,2.321,7.951,6.281
		c0.401-4.992,4.464-8.176,7.724-11.531c3.999-4.115,6.487-8.322,9.834-12.773c6.095-8.104,13.88-14.97,20.333-22.667
		c0.709-0.847,1.357-1.876,2.158-2.893c0.926-1.178,1.885-3.604,2.584-4.367c1.891-2.065,5.853,0.128,5.732-3.601
		c2.833-0.143,5.745,0.058,8.574-0.106c-0.158-0.394-0.087-1.175-0.239-1.561c1.955,0.024,3.496,1.352,5.542,1.691
		c2.167,0.359,3.922,0.06,6.022-0.124c-0.205-2.486,0.806-3.829,1.773-5.895c2.462-0.633,2.971-1.979,4.602-3.14
		c2.042-1.452,3.365-0.859,6.009-1.25c2.963-0.438,2.262-1.201,4.242-2.758c1.885-1.482,3.801-1.739,6.092-2.31
		c5.025-1.249,8.765-0.05,13.666-0.269c2.227-0.1,3.979-0.917,6.334-0.999c2.534-0.089,5.098,0.077,7.615-0.051
		c0.228-2.822-0.788-4.261-1.615-6.615c-0.544-1.549,0.346-1.651-0.658-3.083c-0.525-0.749-2.156-1.46-2.927-1.999
		c-1.376-0.962-1.349-0.515-2.425-1.901c-0.502-0.646-1.261-2.414-1.748-3.258c-1.117-1.933-1.912-4.008-2.991-6.011
		c-1.939-3.604-5.771-6.413-7.269-10.397c-0.797-2.125-1.392-4.582-2.233-6.75c-1.074-2.76-0.188-4.479-0.733-7.267
		c-0.393-2.015-2.444-3.21-1.699-5.686c0.476-1.575,2.672-2.343,3.032-3.966c1.108-4.97-4.927-5.466-7.673-2.977
		c-1.792-1.464,0.726-2.854-0.327-4.464c-0.641-0.981-3.516-1.93-4.6-2.659c-2.521-1.696-4.231-4.45-6.75-5.917
		c-1.422-0.827-3.285-0.704-4.748-1.586c-1.229-0.742-1.868-2.469-3.502-2.823c-2.831-0.613-5.979,5.33-0.466,4.791
		c0.332,1.719-1.894,3.877-3.024,5.209c-0.286,0.336-1.819,2.012-1.941,2.317c-0.408,1.022,0.126,2.722-0.375,3.772
		c-0.729,1.526-3.065,2.533-3.852,4.409c-0.892,2.13-0.748,4.595-1.775,6.891c-1.471,3.278-3.12,1.405-5.266,3.752
		c-0.957,1.046-1.641,5.08-2.383,6.616c-1.538,3.185-1.905,1.593-4.408,3.22c-2.323,1.51-1.042,4.963-3.868,5.488
		c-0.089,2.71,1.646,4.739,0.368,7.626c-0.997,2.252-2.733,3.074-4.742,4.073c-3.369,1.679-2.74,2.85-5.09,5.176
		c-0.563,0.56-2.55,1.111-3.351,1.667c-0.922,0.641-1.614,1.479-2.577,2.066c-2.406,1.471-3.457,2.143-5.417,4.249
		c-1.617,1.738-3.688,3.205-5.676,4.326c-2.729,1.539-4.666,0.649-7.574,1.417c-1.282,0.338-2.049,1.653-3,2.008
		c-1.684,0.626-1.998-0.428-3.316-0.356c-2.21,0.119-3.405,1.318-5.766,1.105c-1.852-0.168-3.789-0.688-5.869-0.799
		c-0.219-1.576-1.33-1.477-1.724-2.608c-0.411-1.181-0.134-2.382-0.325-3.675c-0.524-3.558-1.258-2.901-3.416-5.577
		c-2.49-3.087-4.634-9.083-4.974-13.033c-0.444,0.04-0.422-0.159-0.61-0.39"/>
	<path id="tulare" fill="none" d="M330.167,674.333c-0.089,0.292,0.031,0.638-0.05,0.949c-2.645,0.619-3.411-3.773-3.616-5.616
		c-0.442-3.958,2.485-3.446,3-6.667c5.833-7.303,11.666-14.605,17.498-21.908c4.469-5.595,8.937-11.188,13.405-16.783
		c2.765-3.462,5.541-8.454,8.99-11.258c1.552-1.26,5.028-3.587,7.105-4.033c2.649-0.569,5.276,1.205,7.683,0.673
		c1.054-0.231,1.001-1.597,2.235-1.771c1.493-0.212,1.438,0.583,2.657,0.84c2.232,0.471,5.042,1.123,7.367,0.186
		c0.111-1.91-1.133-6.729,0.042-7.624c0.704-0.537,2.686,0.754,3.689,0.355c1.403-0.556,1.083-1.894,2.236-2.765
		c0.43-0.325,2.82-1.208,3.156-1.178c1.075,0.101,1.958,1.503,2.667,1.534c1.386,0.062,1.952-0.414,2.925-1.35
		c1.216-1.171,0.586-2.616,1.409-3.509c2.414-2.616,12.568-1.361,15.601-1.41c5.189-0.084,10.307-2.662,14.991-0.991
		c2.246,0.801,5.688,3.283,6.34,5.658c0.336,1.229-0.116,2.993,0.252,4.417c0.424,1.639,1.308,2.851,1.416,4.584
		c0.227,3.609-0.987,7.054,0.575,10.425c1.239,2.672,3.401,5.271,4.791,7.907c-4.084,5.132,3.431,7.717,4.707,11.262
		c1.365,3.794-3.146,2.393-1.675,5.324c0.403,0.807,2.154,1.062,2.851,1.833c0.688,0.76,1.255,1.895,1.491,2.843
		c0.96,3.856-1.301,2.93-2.83,5.392c-0.951,1.528-1.132,5.574-1.242,7.35c-0.172,2.772-0.168,6.238,1.242,8.665
		c1.725,2.97,3.769,1.675,6.181,3.242c1.349,0.876,3.34,3.558,3.242,5.092L330.167,674.333z"/>
	<path id="inyo" fill="none" d="M611.5,675.999c-18.327-0.004-36.655-0.009-54.983-0.013c-25.714-0.006-51.428-0.013-77.142-0.019
		c-1.688-0.001-3.384-0.057-5.07-0.001c-2.188,0.071-2.411,0.546-4.182-0.722c-2.462-1.763-3.631-5.743-6.022-7.832
		c-0.862-0.753-4.53-3.915-3.957-5.424c0.633-1.661,2.609-0.229,3.29-1.061c0.821-1.003,0.163-2.672,0.01-3.874
		c-3.645-0.723-2.567-3.084-0.959-5.059c2.083-2.557,3.653-2.812,1.275-6c-1.051-1.409-4.114-2.848-4.267-4.658
		c-0.219-2.603,2.834-2.623,1.34-6.007c-0.902-2.043-3.323-3.606-4.592-5.427c-2.177-3.121-0.168-2.817-0.475-6.176
		c-0.062-0.674-1.313-1.885-1.525-2.732c-0.329-1.319-0.05-2.73-0.407-4c-0.67-2.377-2.584-2.875-3.602-4.731
		c-1.104-2.014,0.014-5.262-0.065-7.602c-0.044-1.293-0.215-2.489-0.408-3.574c-0.072-0.407-1.089-0.859-1.199-1.426
		c-0.153-0.79,0.834-1.136,0.614-2c-0.626-2.454-2.448-3.556-3.431-5.649c-1.062-2.261-1.168-5.018-1.909-7.351
		c-0.914-2.874-1.962-2.61-4.268-4.398c-2.047-1.587-2.719-3.848-3.733-5.934c-1.817-3.731-4.835-7.421-7.25-10.75
		c-1.245-1.718-3.395-2.804-4.341-4.66c-0.956-1.876-1.301-5.233-1.992-7.332c-0.376-1.141-1.299-2.003-1.099-3.274
		c0.153-0.985,1.707-1.512,1.939-2.651c0.613-2.998-2.379-3.642-2.941-6.332c-0.179-0.853-0.14-3.085,0.594-3.685
		c1.676-1.373,1.246,0.448,2.832,0.617c2.987,0.317,5.744,0.22,8.267-1.274c2.392-1.417,3.29-3.011,6.232-1.916
		c0.89,0.33,1.387,1.627,2.409,1.94c1.293,0.396,2.752-0.305,3.942-0.425c5.44-0.549,10.477,0.741,16.074,0.741
		c3.107,0,5.533-0.123,8.325-1.01c5.513-1.75,7.233-1.863,10.677,1.783c2.252,2.389,4.505,4.774,6.757,7.161
		c7.188,7.618,14.376,15.235,21.563,22.854c19.147,20.294,38.297,40.587,57.444,60.881c14.156,15.002,28.312,30.005,42.47,45.008
		C608.236,672.539,610.724,675.999,611.5,675.999z"/>
	<path id="kern" fill="none" d="M327.5,676.664c0.478,0.718,0.92,1.67,1.708,2.325c-3.679,3.769-0.169,7.47-0.316,11.617
		c4.694,0.959,5.932,5.908,8.274,9.392c0.311,0.462-0.154,1.221,0.236,1.756c0.406,0.56,1.358,0.493,1.763,0.984
		c0.799,0.972,1.646,2.497,2.585,3.35c2.471,2.242,4.604,0.318,7.099,1.562c1.617,0.806,2.938,4.431,3.725,5.941
		c1.532,2.95,2.172,2.587,4.937,4.656c2.776,2.079,1.357,3.475,2.391,6.343c0.705,1.957,2.493,3.471,3.258,5.416
		c1.166,2.969,1.216,6.523,4.092,8.575c2.611,1.862,6.031,1.925,8.333,3.993c2.453,2.203,2.918,5.501,5.594,7.673
		c2.443,1.983,6.708,3.336,7.715,6.692c3.902,0.148,7.633,2.959,10.942,5.058h85v-86.03l-157.036-1.807L327.5,676.664z"/>
	<path id="san_bernardino" fill="none" d="M485.167,675.967c0,17.209,0,34.419,0,51.628c0,26.263,0,52.524,0,78.787
		c0,3.159-0.005,6.319,0,9.479c0.001,0.896,0.197,2.054,0,2.928c-0.171,0.757-1.261,1.247-1.307,1.669
		c-0.188,1.707,1.107,2.838,0.906,4.474c-0.156,1.277-2.225,3.139-3.209,3.791c-0.3,5.141-2.186,13.84,2.027,17.857
		c1.36,1.298,2.494,0.377,3.923,1.077c1.413,0.691,1.467,1.433,2.584,2.415c1.178,1.035,4.478,4.283,6.685,4.316
		c2.134,3.777,1.122,10.375,6.315,4.592c3.331-3.709,5.707-5.877,10.409-7.981c4.449-1.991,8.96-3.423,12.739-6.233
		c1.691-1.259,3.466-2.28,5.018-3.676c1.498-1.347,2.824-4.592,4.908-4.758c15.986-1.453,31.972-2.906,47.958-4.36
		c27.291-2.479,54.582-4.962,81.873-7.442c6.354-0.577,12.711-1.155,19.066-1.733c1.93-0.175,3.926-0.222,5.839-0.53
		c3.812-0.614,4.423-2.979,7.599-5.257c1.947-1.396,5.077-0.504,6.422-2.993c1.083-2.004,0.526-5.423,1.318-7.607
		c0.872-2.408,2.548-4.156,1.276-7.075c-1.287-2.96-3.698-2.153-5.951-4.017c-1.484-1.229-2.675-3.49-3.984-4.992
		c-3.032-3.479-4.67-7.09-6.156-11.25c-1.145-3.203-3.406-6.258-4.844-9.481c-0.661-1.48-1.682-3.1-2.007-4.667
		c-0.381-1.839,0.487-4.163-0.059-5.941c-0.786-2.564-2.259-1.723-3.434-3.234c-1.188-1.53-0.164-3.481-0.976-5.098
		c-1.722-3.43-5.079-3.491-4.941-8.317L611.5,675.967H485.167z"/>
	<path id="san_luis_obispo" fill="none" d="M288.36,675.826c-6.761-0.035-13.521-0.069-20.282-0.104
		c-2.806-0.014-13.782-1.502-13.75,1.782c0.685,0.331,1.674,0.654,2.456,0.543c0.103,2.027-0.996,6.471,2,6.334
		c-0.468,2.458,2.396,4.743,4.459,5.54c1.271,0.491,2.616,0.367,3.925,0.742c1.538,0.439,2.722,1.144,4.284,1.383
		c-0.03,1.524,0.841,1.94,1.457,2.935c0.422,0.68,1.639,3.393,1.918,3.69c0.976,1.044,1.928,0.606,2.941,1.392
		c1.358,1.055,0.938,1.793,1.734,2.934c1.097,1.571,0.326,1.562,2.332,2.335c1.165,0.449,3.109,0.364,4.316,0.684
		c4.587,1.21,1.922,1.464,2.742,5.259c1.401,0.596,2.25,1.859,2.324,3.344c1.763,0.245,1.828,2.211,1.9,3.665
		c-2.024-0.243-2.91,1.368-2.333,3c-1.395,0.012-1.492,0.373-2.339,0.991c-3.143-0.343-4.061,0.827-2.701,3.408
		c0.533,1.013,1.983,0.19,2.098,1.642c0.131,1.646-1.901,1.312-1.938,2.076c-0.21,4.323,10.376,0.96,9.649,6.215
		c7.383-0.903,2.387,8.878,7.608,9.392c1.672,0.164,4.138-1.973,6.008-2.341c2.647-0.521,4.341-0.653,6.616-2.308
		c-0.165,2.397,1.938,1.192,3.291,2.05c1.476,0.934,1.575,2.253,2.743,3.267c0.84,0.729,3.019,1.151,3.616,2.392
		c0.628,1.3,0.043,4.097,0.116,5.552c1.347,0.209,2.558,0.299,3.349,1.331c2.483-0.554,10.701-4.388,10.651,1.002
		c4.405,0.236,5.635,0.592,9.708-1.2c3.25-1.431,5.997-0.797,9.575-0.417c3.75,0.398,6.487,0.716,10.075-0.233
		c3.502-0.927,7.067-1.186,9.857,1.209c0.082-0.302,0.093-0.618,0.116-0.927c2.842-0.452,5.06,1.022,7.9,0.566
		c0.049-5.037-6.799-4.54-9.525-8.615c-1.226-1.833-1.529-4.948-2.991-6.433c-1.693-1.724-4.737-0.739-6.69-1.984
		c-3.529-2.25-4.44-8.66-6.334-11.666c-1.396-2.213-1.121-4.194-2.499-6.167c-1.204-1.724-3.208-2.362-4.509-3.815
		c-1.682-1.878-1.389-4.008-2.382-5.952c-1.029-2.019-2.978-2.895-5.01-3.916c-3.997-2.012-7.071-4.735-10.342-8.065
		c-1.643-1.672-2.489-3.697-4.651-4.999c-3.124-1.881-3.588-0.91-4.016-5.001c-0.418-3.992,0.752-2.636,2.593-5.408
		c1.491-2.246,0.623-4.646-0.511-6.341c-0.912-1.364-3.241-4.494-5.356-4.525c1.011,0.016-2.604,3.532-3.176,3.733
		c-2.832,0.995-7.093,0.167-10.071,0.152C303.662,675.903,296.011,675.864,288.36,675.826z"/>
	<path id="santa_barbara" fill="none" d="M310.518,742.674c2.848-0.782,5.992-1.758,8.058-0.084c1.71,1.387,3.916,3.557,4.934,5.066
		c0.667,0.991,0.469,3.537,0.984,4.683c0.604,1.343,2.058,1.595,1.731,3.542c4.197-3.578,8.139-1.128,12.942-0.884
		c4.803,0.244,9.965,0.21,14.667-0.259c2.345-0.233,4.884-0.748,7.333-0.407c2.467,0.343,4.12,1.64,6.684,0.999
		c2.478-0.619,2.906-2.125,5.742-1.091c1.776,0.647,4.228,3.104,4.908,4.092c0,5.956,0,11.911,0,17.867c0,3.994,0,7.987,0,11.98
		c0,2.413,0.45,8.569-1.392,10.167c-2.088,1.812-3.294-1.856-5.209-0.948c-1.156,0.548-0.193,2.256-0.718,2.615
		c-1.054,0.726-1.375,0.073-2.332,0.301c-2.055,0.486-3.725-0.245-5.366,1.233c0.097-2.938-4.581-1.003-6.243-0.81
		c-2.659,0.309-3.463-0.046-5.657-2.158c-1.588-1.529-2.161-2.912-4.751-3.581c-1.218-0.314-2.101,0.072-3.333-0.335
		c-1.189-0.393-2.091-1.359-3.324-1.657c-2.557-0.618-5.038,0.435-7.674,0.657c-2.093,0.178-5.886-1.391-7.258-0.592
		c-2.199,1.28-0.873,4.701-5.149,2.666c-1.807-0.86-2.265-3.021-4.51-3.823c-1.265-0.451-2.819-0.249-4.106,0.039
		c-0.54-1.394-1.292-4.156-2.385-5.216c-1.376-1.333-3.724-1.416-5.275-2.74c-4.282-3.655,1.542-4.972,1.067-9.609
		c0.659,0.005,1.215-0.476,1.899-0.439c-0.028-1.5-0.546-2.777-0.624-4.284c-0.074-1.435,0.909-3.104,0.682-4.325
		c-0.293-1.57-0.843-1.811-2.074-2.94c-1.99-1.828-1.826,0.255-1.674-2.815c0.066-1.349,1.136-2.331,0.741-3.918
		c-0.507-2.039-1.24-1.275-2.314-2.741C297.082,746.866,306.066,743.896,310.518,742.674z"/>
	<path id="ventura" fill="none" d="M378.55,755.135c0,5.985,0,11.972,0,17.955c0,4.391,0,8.779,0,13.169
		c0,3.039,0.722,7.527-0.439,10.354c-1.309-0.155-2.1,0.42-2.226,1.65c2.169,1.055,2.688,2.938,4.618,3.731
		c2.9,1.193,4.982-1.456,6.739,1.002c1.453,2.033,0.141,5.249,1.511,7.341c1.072,1.639,3.61,2.668,5.008,4.343
		c3.394,4.062,6.138,6.475,11.073,8.575c1.537,0.654,5.543,3.024,7.351,2.099c1.698-0.87,1.857-4.875,2.567-6.434
		c1.772-3.887,6.473-6.487,10.064-8.608c4.543-2.683,5.638-6.758,4.426-12.39c-1-4.644-4.744-6.422-8.156-9.178
		c-3.382-2.731-5.823-6.738-8.666-10c-4.723-5.418-8.954-11.372-13.835-16.498c-2.622-2.753-6.188-4.228-9.333-6.335
		c-4.445-2.979-6.975,0.083-11.417-1.249"/>
	<path id="las_angeles" fill="none" d="M399.168,761.997c22.476,0,44.951,0,67.427,0c4.981,0,14.569-1.694,18.24,2.666l1.666,49.667
		l-0.666,4.333l0.666,3h-1.667l-0.666,3c0.544,1.904-0.285,3.582-2.666,2.634c-1.976,1.966-0.197,11.235-0.348,14.193
		c-11.55,2.466-14.738,8.97-19.042,18.121c-2.19-0.317-4.148-2.063-6.595-2.3c-2.87-0.275-5.442,0.439-8.293,0.294
		c-0.074-0.977-0.552-1.277-0.099-2.274c-2.231-1.601,0.027-10.37-1.219-13.408c-0.966-2.353-3.061-2.232-4.416-3.936
		c-1.132-1.421-1.423-4.783-2.049-6.601c-3.15-0.103-4.968-3.083-7.961-3.406c-3.458-0.376-6.599,1.438-8.981,3.724
		c-1.479-0.807-2.662,0.603-3.656,0.317c-1.203-0.347-1.617-1.368-2.426-2.276c-1.643-1.843-2.599-3.978-5.209-4.823
		c4.201-6.144,3.635-12.767,12.291-15.249c4.793-1.374,5.985-3.068,5.25-8c-0.471-3.161-1.204-9.051-5.916-8.343L399.168,761.997z"
		/>
	<path id="orange" fill="none" d="M462.74,856.915c-0.168-3.156,2.055-4.968,4.152-7.412c3.477-4.048,5.577-4.55,9.321-7.831
		c1.334-1.169,2.986-0.506,4.939-0.182c2.822,0.469-0.854,1.779,1.014,3.514c1.948,1.809,9.163,3.193,8.718,6.275
		c7.432-0.687,7.543,8.551,7.282,13.717c-0.138,2.725,0.6,7.05-0.584,9.416c-0.596,1.189-1.997,1.543-2.425,2.576
		c-0.559,1.35,0.196,2.707-0.042,4.29c-2.683-0.046-4.713-3.315-5.341-5.559c-0.466,0.043-1.09-0.158-1.561-0.105
		c-0.104-3.822-2.229-2.324-4.382-3.669c-2.046-1.276-2.544-4.009-5.075-4.54c-2.076-0.438-4.063,1.494-6.023-0.645
		c-0.73-0.797,0.136-2.265-0.977-3.022c-1.263-0.862-2.254,0.312-3.534,0.533c-0.438-1.564-1.469-3.052-3.333-2.658
		c-0.49-2.076-1.785-3.667,0.669-8.831"/>
	<path id="riverside" fill="none" d="M528.501,876.668c15.24-1.548,30.479-3.097,45.72-4.645
		c26.165-2.658,52.331-5.316,78.496-7.976c9.135-0.929,18.318-2.032,27.449-2.771c-0.632-3.942,2.473-5.652,3.586-9.025
		c1.497-4.531-0.699-5.696-2.208-9.51c2.745-0.863,1.545-6.002,1.682-8.351c2.13-0.857,3.354-0.016,5.024-1.658
		c1.577-1.552,0.812-3.315,1.584-5.065c1.125-2.551,1.702-1.16,4-2.335c2.096-1.071,2.174-2.031,2.334-4.665l-161,15.666
		l-2.334,1.667l-0.666,1.667l-33.643,19.943l0.979,1.53L498.525,863l-0.691,1.667v2.666v2l0.437,2l5.897,0.334l7,1.333
		L528.501,876.668z"/>
	<path id="san_diego" fill="none" d="M494.834,878.334l2-3v-2.666l1-1l5-0.334l5.334,1l19.333,4.334
		c16.761-1.688,33.521-3.376,50.281-5.062c27.235-2.743,54.474-5.486,81.71-8.229c4.467-0.45,8.935-0.9,13.4-1.351
		c1.488-0.149,2.981-0.354,4.474-0.45c2.953-0.192,4.207-0.677,2.712,2.669c-0.903,2.02-0.643,1.209-1.918,2.416
		c-2.034,1.924-3.007,2.399-3.342,5.689c-0.094,0.903,0.601,1.241,0.349,2.316c-0.128,0.544-1.389,1.558-1.666,2.667
		c-0.307,1.229,0.153,2.59-0.243,3.758c-0.336,0.991-1.546,2.019-2.015,2.984c-1.202,2.477-0.441,4.05-0.411,6.593
		c0.03,2.659-1.632,4.804-1.664,7.332c-0.058,4.533,0.171,9.445,3.075,13.259c2.85,3.74,8.32,1.638,10.99,4.335
		c1.429,1.443,1.224,3.491,1.837,5.147c0.891,2.407,1.951,3.354,1.188,6.275c-0.923,3.539-2.489,6.544-6,8.407
		c-1.83,0.971-2.668,1.919-4.019,2.981c-1.451,1.141-2.817,1.59-5.073,2.261c-16.997,1.829-33.994,3.658-50.991,5.488
		c-26.787,2.883-53.574,5.766-80.36,8.647c-3.979,0.428-7.955,0.856-11.934,1.284c-1.024,0.11-2.56,0.58-3.574,0.385
		c-2.343-0.451-1.515,0.026-2.562-2.273c-1.205-2.646-1.762-6.647-1.912-9.531c-0.151-2.896,0.215-5.344,2.018-2
		c1.006,1.864,0.367,4.921,1.039,6.958c2.978-0.824,1.229-9.198-1.058-10.949c-4.993-3.827-4.521,5.504-9.282,5.939
		c-0.399-5.563,4.474-8.199,6.69-12.208c0.385-0.696,1.438-2.493,0.942-3.423c-1.392-2.606-1.977,0.533-2.768,0.614
		c-0.874,0.089-2.3,0.877-2.857-0.675c-0.593-1.646,1.279-1.67,1.625-2.909c0.693-2.49-0.271-5.756-0.017-8.349
		c0.235-2.384,0.787-4.901,1.008-7.326c0.308-3.369-0.909-3.779-2.248-6.748c-1.164-2.579-0.842-5.201-2.568-7.633
		c-1.633-2.3-3.572-2.869-5.932-4.22c-2.008-1.151-3.726-2.284-5.511-4.14c-0.919-0.953-1.262-1.902-2.342-2.676
		c-0.772-0.552-2.914-0.79-3.341-1.325c-1.525-1.91,2.334-5.303-1.4-5.268"/>
</g>
</svg>
